<?xml version="1.0" encoding="utf-8"?>
<!-- Generator: Adobe Illustrator 21.0.0, SVG Export Plug-In . SVG Version: 6.00 Build 0)  -->
<svg version="1.1" id="图层_1" xmlns="http://www.w3.org/2000/svg" xmlns:xlink="http://www.w3.org/1999/xlink" x="0px" y="0px"
	 viewBox="0 0 53 53" style="enable-background:new 0 0 53 53;" xml:space="preserve">
<style type="text/css">
	.st0{fill:#00F2FF;}
</style>
<path class="st0" d="M53.1,12.2v5.3c0,1.3-1.1,2.1-2.6,3.3c-0.4,0.3-0.9,0.7-1.2,1v5.7H48v12.9h-0.6V27.4h-1.3v-6.1
	c0-1.2,1-2,2.4-3.1c0.4-0.3,1.1-0.8,1.4-1.1v-4.9h1.3V11c0-0.3-0.7-1.2-1.4-1.8L48,7.4l-0.9,0.9l-4.5-4.6c-0.2-0.2-0.6-0.5-0.7-0.5
	h-6.7V1.9h-3.1c-0.7,0-1.6,0.9-2.4,1.8c-1,1-2,2.1-3.1,2.1c-1.2,0-2.2-1.1-3.2-2.2c-0.7-0.8-1.5-1.6-2-1.6h-4.7v1.3H6V1.9h-6.1V1.3
	H6V0l10.7,0v1.3h4.7c0.8,0,1.6,0.8,2.5,1.8c0.9,1,1.9,2,2.7,2c0.8,0,1.8-1,2.7-1.9c1-1,1.9-2,2.9-2h3.1V0L42,0c1.5,0,2.6,1.2,3,1.6
	l4.4,4.5L48.5,7l1.8,1.8c0.4,0.3,1.6,1.5,1.6,2.2v1.2H53.1z"/>
</svg>
