<?xml version="1.0" encoding="utf-8"?>
<!-- Generator: Adobe Illustrator 21.0.0, SVG Export Plug-In . SVG Version: 6.00 Build 0)  -->
<svg version="1.1" id="图层_1" xmlns="http://www.w3.org/2000/svg" xmlns:xlink="http://www.w3.org/1999/xlink" x="0px" y="0px"
	 viewBox="0 0 53 53" style="enable-background:new 0 0 53 53;" xml:space="preserve">
<style type="text/css">
	.st0{fill:#00F2FF;}
</style>
<path class="st0" d="M1.2,12.2V11c0-0.7,1.2-1.9,1.6-2.2L4.5,7L3.6,6.1L8,1.6C8.4,1.2,9.6,0,11,0l6.8,0v1.3h3.1c1,0,1.9,1,2.9,2
	c0.9,0.9,1.8,1.9,2.7,1.9c0.9,0,1.9-1.1,2.7-2c0.9-1,1.7-1.8,2.5-1.8h4.7V0H47v1.3h6.1v0.6H47v1.3H36.3V1.9h-4.7
	c-0.5,0-1.3,0.8-2,1.6c-1,1.1-2.1,2.2-3.2,2.2c-1.1,0-2.1-1.1-3.1-2.1c-0.8-0.9-1.7-1.8-2.4-1.8h-3.1v1.3h-6.7
	c-0.2,0.1-0.5,0.3-0.7,0.5L5.9,8.3L5,7.4L3.2,9.2C2.5,9.8,1.8,10.7,1.8,11v1.2h1.3v4.9c0.3,0.3,0.9,0.8,1.4,1.1
	c1.4,1.1,2.4,1.9,2.4,3.1v6.1H5.6v12.9H5V27.4H3.7v-5.7c-0.3-0.3-0.8-0.7-1.2-1c-1.5-1.1-2.6-2-2.6-3.3v-5.3H1.2z"/>
</svg>
