<?xml version="1.0" encoding="utf-8"?>
<!-- Generator: Adobe Illustrator 21.0.0, SVG Export Plug-In . SVG Version: 6.00 Build 0)  -->
<svg version="1.1" id="图层_1" xmlns="http://www.w3.org/2000/svg" xmlns:xlink="http://www.w3.org/1999/xlink" x="0px" y="0px"
	 viewBox="0 0 53 53" style="enable-background:new 0 0 53 53;" xml:space="preserve">
<style type="text/css">
	.st0{fill:#00F2FF;}
</style>
<path class="st0" d="M0.1,40.9v-5.3c0-1.3,1.1-2.1,2.6-3.3c0.4-0.3,0.9-0.7,1.2-1v-5.7h1.3V12.8h0.6v12.9h1.3v6.1c0,1.2-1,2-2.4,3.1
	c-0.4,0.3-1.1,0.8-1.4,1.1v4.9H2v1.2c0,0.3,0.7,1.2,1.4,1.8l1.8,1.8l0.9-0.9l4.5,4.6c0.2,0.2,0.6,0.5,0.7,0.5H18v1.3h3.1
	c0.7,0,1.6-0.9,2.4-1.8c1-1,2-2.1,3.1-2.1c1.2,0,2.2,1.1,3.2,2.2c0.7,0.8,1.5,1.6,2,1.6h4.7v-1.3h10.7v1.3h6.1v0.6h-6.1v1.3H36.5
	v-1.3h-4.7c-0.8,0-1.6-0.8-2.5-1.8c-0.9-1-1.9-2-2.7-2c-0.8,0-1.8,1-2.7,1.9c-1,1-1.9,2-2.9,2H18v1.3h-6.8c-1.5,0-2.6-1.2-3-1.6
	L3.8,47l0.9-0.9L3,44.3c-0.4-0.3-1.6-1.5-1.6-2.2v-1.2H0.1z"/>
</svg>
