<?xml version="1.0" encoding="utf-8"?>
<!-- Generator: Adobe Illustrator 21.0.0, SVG Export Plug-In . SVG Version: 6.00 Build 0)  -->
<svg version="1.1" id="图层_1" xmlns="http://www.w3.org/2000/svg" xmlns:xlink="http://www.w3.org/1999/xlink" x="0px" y="0px"
	 viewBox="0 0 53 53" style="enable-background:new 0 0 53 53;" xml:space="preserve">
<style type="text/css">
	.st0{fill:#00F2FF;}
</style>
<path class="st0" d="M51.8,40.9v1.2c0,0.7-1.2,1.9-1.6,2.2l-1.8,1.8l0.9,0.9L45,51.5c-0.4,0.4-1.6,1.6-3,1.6h-6.8v-1.3h-3.1
	c-1,0-1.9-1-2.9-2c-0.9-0.9-1.8-1.9-2.7-1.9c-0.9,0-1.9,1.1-2.7,2c-0.9,1-1.7,1.8-2.5,1.8h-4.7v1.3H6v-1.3h-6.1v-0.6H6v-1.3h10.7
	v1.3h4.7c0.5,0,1.3-0.8,2-1.6c1-1.1,2.1-2.2,3.2-2.2c1.1,0,2.1,1.1,3.1,2.1c0.8,0.9,1.7,1.8,2.4,1.8h3.1v-1.3h6.7
	c0.2-0.1,0.5-0.3,0.7-0.5l4.5-4.6l0.9,0.9l1.8-1.8c0.7-0.6,1.4-1.5,1.4-1.8v-1.2h-1.3v-4.9c-0.3-0.3-0.9-0.8-1.4-1.1
	c-1.4-1.1-2.4-1.9-2.4-3.1v-6.1h1.3V12.8H48v12.9h1.3v5.7c0.3,0.3,0.8,0.7,1.2,1c1.5,1.1,2.6,2,2.6,3.3v5.3H51.8z"/>
</svg>
