<?xml version="1.0" encoding="utf-8"?>
<!-- Generator: Adobe Illustrator 21.0.0, SVG Export Plug-In . SVG Version: 6.00 Build 0)  -->
<svg version="1.1" id="图层_1" xmlns="http://www.w3.org/2000/svg" xmlns:xlink="http://www.w3.org/1999/xlink" x="0px" y="0px"
	 viewBox="0 0 60 60" style="enable-background:new 0 0 60 60;" xml:space="preserve">
<style type="text/css">
	.st0{fill:#00E2FF;}
</style>
<g>
	<g>
		<path class="st0" d="M47.8,27.1c0.5,1.8,0.8,3.7,0.8,5.6c0,10.9-8.8,19.7-19.7,19.7c-10.9,0-19.7-8.8-19.7-19.7
			c0-10.9,8.8-19.7,19.7-19.7c2.1,0,4.1,0.3,6.1,1l2.2-2.5c-2.6-1-5.4-1.6-8.3-1.6C16.4,9.9,6.2,20.1,6.2,32.6s10.2,22.8,22.8,22.8
			s22.8-10.2,22.8-22.8c0-2.7-0.5-5.3-1.4-7.8C50.3,24.8,48,26.9,47.8,27.1z M28.9,22.6c1,0,2.8,0.4,2.8,0.4l2.3-2.4
			c-1.6-0.7-3.3-1-5.1-1c-7.2,0-13.1,5.9-13.1,13.1c0,7.2,5.9,13.1,13.1,13.1c7.2,0,13.1-5.9,13.1-13.1c0-1.5-0.2-2.9-0.7-4.3
			l-2.6,2c0,0,0.3,1.5,0.3,2.3c0,5.5-4.5,10.1-10.1,10.1c-5.5,0-10.1-4.5-10.1-10.1S23.4,22.6,28.9,22.6z M36.8,22.7L30.4,29
			c-0.4-0.2-0.9-0.3-1.5-0.3c-2.1,0-3.9,1.7-3.9,3.9s1.7,3.9,3.9,3.9s3.9-1.7,3.9-3.9c0-0.5-0.1-1-0.3-1.4l6.4-6.4l4.9,1.7l9.2-9.2
			l-6.5-2.3l-2.3-6.5L35,17.8L36.8,22.7z M28.9,33.4c-0.4,0-0.8-0.4-0.8-0.8c0-0.4,0.4-0.8,0.8-0.8s0.8,0.4,0.8,0.8
			C29.7,33.1,29.4,33.4,28.9,33.4z M43,14.2l1.2,3.3l3.3,1.2L43,23l-3.3-1.2l-1.2-3.3L43,14.2z"/>
	</g>
</g>
</svg>
