<?xml version="1.0" encoding="utf-8"?>
<!-- Generator: Adobe Illustrator 21.0.0, SVG Export Plug-In . SVG Version: 6.00 Build 0)  -->
<svg version="1.1" id="Layer_1" xmlns="http://www.w3.org/2000/svg" xmlns:xlink="http://www.w3.org/1999/xlink" x="0px" y="0px"
	 viewBox="0 0 80 92.5" style="enable-background:new 0 0 80 92.5;" xml:space="preserve">
<style type="text/css">
	.st0{fill:#FDB25A;}
	.st1{fill:#F88821;}
	.st2{fill:#FF6E00;}
	.st3{fill:#FB4837;}
	.st4{fill:#FF271C;}
	.st5{fill:#DD2B2D;}
	.st6{fill:#EFEFEF;}
	.st7{fill:#C1C1C1;}
	.st8{fill:#DCD3BF;}
	.st9{fill:#C1B7AB;}
	.st10{fill:#969696;}
</style>
<g>
	<rect x="23.2" y="69.9" class="st0" width="32.9" height="12.8"/>
	<rect x="23.2" y="71.8" class="st1" width="32.9" height="12.8"/>
	<path class="st2" d="M33.7,84.5h22.4V71.3h-5C45.4,75.8,39.6,80.3,33.7,84.5z"/>
	<rect x="15" y="81.8" class="st3" width="50.3" height="8.2"/>
	<rect x="15" y="84.6" class="st4" width="50.3" height="8.2"/>
	<path class="st5" d="M39.6,88.1c-0.7,0.5-1.4,1-2.1,1.5c-0.5,0.4-1,0.8-1.4,1.1c-0.8,0.7-1.6,1.4-2.4,2.1h31.4v-8.3H44.8
		C43.1,85.7,41.3,86.9,39.6,88.1z"/>
</g>
<path class="st6" d="M68.2,7.8c-0.7-0.2-1.2-1-1.1-1.7c0.1-0.6,0.1-1.2,0.1-1.8H12.6c0,0.6,0.1,1.2,0.1,1.8c0.1,0.7-0.4,1.5-1.1,1.7
	c-6.3,2-11.4,7.9-10.6,15c0.5,4,2.1,7.9,5.4,10.5c1.9,1.4,3.8,2.5,5.9,3.5c1,0.4,1.9,0.8,2.9,1.2c3.8,1.6,8.5,3,11.8,5.7
	c2.7,2.2,4.6,5.2,7.9,6.9c0.6,0.3,1.4,1.1,1.4,1.9v8.1h7.5v-8.1c0-0.7,0.6-1.5,1.2-1.9c3.3-1.7,5-4.7,7.8-6.9
	c3.2-2.6,8-4.1,11.8-5.7c1-0.4,1.9-0.8,2.9-1.2c2.1-1,4.1-2.1,5.9-3.5c3.3-2.5,4.9-6.5,5.4-10.4C79.6,15.7,74.6,9.8,68.2,7.8z
	 M20.4,34.1c-3.1-1.6-6.9-2.6-9.6-4.3c-7.2-4.5-4.7-13.6,1.8-16.4c0.7-0.3,1.4,0.1,1.5,0.8c1.4,6.3,3.8,13.2,6.9,19.4
	C21.3,34.2,21.1,34.4,20.4,34.1z M69.1,29.7c-2.8,1.7-6.5,2.7-9.6,4.3c-0.6,0.3-0.9,0.1-0.5-0.5c3.1-6.2,5.4-13.2,6.9-19.4
	c0.2-0.7,0.9-1.1,1.5-0.8C73.8,16.1,76.3,25.3,69.1,29.7z"/>
<path class="st7" d="M68.2,7.8c-0.7-0.2-1.2-1-1.1-1.7c0.1-0.8,0.1-1.6,0.2-2.4c0-0.7-0.6-1.5-1.3-1.5H55.3C55,2.5,54.8,2.8,54.6,3
	c-0.5,0.7-0.8,1-0.8,1c-0.5,0.6-0.9,1.2-1.4,1.8C52,6.4,51.5,7,51.1,7.5c-1.4,1.7-2.8,3.4-4.2,5.2c-0.5,0.7-2.7,3.5-3.1,4.1
	C37.6,25.1,31.9,33.6,25.9,42c-0.1,0.2-0.3,0.3-0.4,0.5c0.5,0.3,1,0.7,1.5,1.1c2.7,2.2,4.5,5.2,7.7,6.9c0.6,0.3,1.2,1.1,1.2,1.9v8.2
	l0,0h7.9h0.3v-8.2c0-0.7,0.4-1.5,1-1.9c3.3-1.7,5-4.7,7.7-6.9c3.2-2.6,7.9-4.1,11.7-5.7c1-0.4,1.9-0.8,2.9-1.2
	c2.1-1,4.1-2.1,5.9-3.5c3.3-2.5,4.9-6.5,5.4-10.4C79.6,15.7,74.6,9.8,68.2,7.8z M69.1,29.7c-2.8,1.7-6.5,2.7-9.6,4.3
	c-0.6,0.3-0.9,0.1-0.5-0.5c3.1-6.2,5.4-13.2,6.9-19.4c0.2-0.7,0.9-1.1,1.5-0.8C73.8,16.1,76.3,25.3,69.1,29.7z"/>
<path class="st8" d="M12.8,6.2h54.3V6.1c0.1-0.8,0.1-1.6,0.2-2.4c0-0.7-0.6-1.5-1.3-1.5H13.9c-0.7,0-1.3,0.8-1.3,1.5
	S12.7,5.3,12.8,6.2C12.8,6.1,12.8,6.2,12.8,6.2z"/>
<path class="st9" d="M66,2.2H42.7c-0.5,1.4-1.2,2.8-2,4H67V6.1c0.1-0.8,0.1-1.6,0.2-2.4C67.3,3,66.7,2.2,66,2.2z"/>
<circle class="st6" cx="40" cy="63.6" r="6.2"/>
<path class="st10" d="M43.6,58.5c-2.2,3.5-5.4,6.2-9.2,7.7c1,2.1,3.1,3.6,5.6,3.6c3.4,0,6.2-2.8,6.2-6.2
	C46.2,61.5,45.1,59.7,43.6,58.5z"/>
</svg>
