<?xml version="1.0" encoding="utf-8"?>
<!-- Generator: Adobe Illustrator 21.0.0, SVG Export Plug-In . SVG Version: 6.00 Build 0)  -->
<svg version="1.1" id="Layer_1" xmlns="http://www.w3.org/2000/svg" xmlns:xlink="http://www.w3.org/1999/xlink" x="0px" y="0px"
	 viewBox="0 0 65 65" style="enable-background:new 0 0 65 65;" xml:space="preserve">
<style type="text/css">
	.st0{fill:#12BAC6;}
	.st1{fill:#00E2FF;}
</style>
<g>
	<polygon class="st0" points="46.8,9.4 44.1,3.2 31.5,4.6 18.7,3.2 17.2,9.4 	"/>
	<polygon class="st0" points="49.3,11.2 31.9,12.5 14.6,11.2 14.1,15.8 31.9,16.5 50,15.2 	"/>
	<polygon class="st0" points="14.6,12.8 49.3,12.8 46.9,7.8 31.6,8.7 16.4,7.8 	"/>
</g>
<g>
	<polygon class="st1" points="31.4,31.3 18.7,3.2 6.3,9.4 28.6,31.3 	"/>
	<polygon class="st1" points="30.4,31.3 14.5,5.3 10.7,7.2 29.5,31.3 	"/>
	<polygon class="st1" points="31.4,31.3 18.7,3.2 14.5,5.3 30.4,31.3 	"/>
</g>
<g>
	<polygon class="st1" points="32.7,31.3 50.4,6.3 44.2,3.2 31.6,31.3 	"/>
	<polygon class="st1" points="34.2,31.3 52.3,7.2 48.5,5.3 32.6,31.3 	"/>
	<polygon class="st1" points="34.4,31.3 56.7,9.4 52.3,7.2 33.5,31.3 	"/>
</g>
<rect x="24.6" y="31.4" class="st0" width="14.1" height="4.2"/>
<g>
	<circle class="st1" cx="31.6" cy="47.5" r="11.8"/>
	<path class="st1" d="M31.6,33.2c-7.9,0-14.3,6.4-14.3,14.3c0,7.9,6.4,14.3,14.3,14.3c7.9,0,14.3-6.4,14.3-14.3
		C45.9,39.7,39.5,33.2,31.6,33.2z M31.6,61.1c-7.5,0-13.5-6.1-13.5-13.5c0-7.5,6.1-13.5,13.5-13.5s13.5,6.1,13.5,13.5
		C45.2,55,39.1,61.1,31.6,61.1z"/>
	<path class="st1" d="M31.6,33.7c-7.6,0-13.8,6.2-13.8,13.8c0,7.6,6.2,13.8,13.8,13.8c7.6,0,13.8-6.2,13.8-13.8
		C45.4,39.9,39.3,33.7,31.6,33.7z M31.6,60.1c-7,0-12.6-5.6-12.6-12.6c0-7,5.6-12.6,12.6-12.6c7,0,12.6,5.6,12.6,12.6
		C44.3,54.5,38.6,60.1,31.6,60.1z"/>
	<path class="st1" d="M31.6,34.9c-7,0-12.6,5.6-12.6,12.6c0,7,5.6,12.6,12.6,12.6c7,0,12.6-5.6,12.6-12.6
		C44.3,40.6,38.6,34.9,31.6,34.9z M31.6,59.3c-6.5,0-11.8-5.3-11.8-11.8c0-6.5,5.3-11.8,11.8-11.8c6.5,0,11.8,5.3,11.8,11.8
		C43.4,54,38.2,59.3,31.6,59.3z"/>
</g>
</svg>
