<?xml version="1.0" encoding="utf-8"?>
<!-- Generator: Adobe Illustrator 21.0.0, SVG Export Plug-In . SVG Version: 6.00 Build 0)  -->
<svg version="1.1" id="Layer_1" xmlns="http://www.w3.org/2000/svg" xmlns:xlink="http://www.w3.org/1999/xlink" x="0px" y="0px"
	 viewBox="0 0 222.5 44.3" style="enable-background:new 0 0 222.5 44.3;" xml:space="preserve">
<style type="text/css">
	.st0{fill:#FFFFFF;}
	.st1{fill:#00F2FF;}
</style>
<text transform="matrix(1 0 0 1 400 1500)" style="font-family:'MyriadPro-Regular'; font-size:12px;">style=&quot;z-index: 5; white-space: nowrap; font-size: 60px;</text>
<g>
	<path class="st0" d="M54,29.7h0.8l3.4,5.8c0,0,0.1,0.1,0.1,0.2c0,0.1,0.1,0.2,0.1,0.3c0-0.1,0-0.2,0-0.3s0-0.2,0-0.3v-5.6H59v6.9
		h-0.8l-3.4-5.8c0-0.1-0.1-0.1-0.1-0.2s-0.1-0.2-0.1-0.3c0,0.2,0,0.3,0,0.4s0,0.2,0,0.2v5.7H54V29.7z"/>
	<path class="st0" d="M65,33.9v0.4h-3.5c0,0.6,0.2,1.1,0.5,1.4c0.3,0.3,0.7,0.5,1.3,0.5c0.2,0,0.4,0,0.7-0.1
		c0.2-0.1,0.4-0.2,0.7-0.3v0.6c-0.2,0.1-0.4,0.2-0.7,0.2c-0.2,0-0.5,0.1-0.7,0.1c-0.7,0-1.3-0.2-1.7-0.7S61,34.9,61,34.1
		c0-0.8,0.2-1.4,0.6-1.9c0.4-0.5,0.9-0.7,1.6-0.7c0.6,0,1.1,0.2,1.4,0.6C64.8,32.6,65,33.2,65,33.9z M64.4,33.8c0-0.6-0.2-1-0.4-1.3
		c-0.2-0.3-0.6-0.4-1-0.4s-0.7,0.2-1,0.5s-0.4,0.7-0.5,1.3L64.4,33.8L64.4,33.8z"/>
	<path class="st0" d="M67.6,30.2v1.5h1.2v0.5h-1.2v2.9c0,0.4,0.1,0.7,0.2,0.8c0.1,0.2,0.3,0.2,0.5,0.2c0.1,0,0.2,0,0.3,0
		s0.2,0,0.3-0.1v0.6c-0.1,0-0.2,0.1-0.3,0.1s-0.2,0-0.3,0c-0.4,0-0.7-0.1-0.9-0.3C67,36.1,67,35.7,67,35.2v-3h-1v-0.5h1v-1.3
		L67.6,30.2z"/>
	<path class="st0" d="M69.7,31.7h0.7l1.2,4v0.1c0,0.1,0,0.2,0.1,0.3c0-0.1,0.1-0.3,0.1-0.4l0,0l1.3-4h0.8l1.3,4c0,0,0,0.2,0.1,0.4
		l0,0c0-0.1,0-0.2,0-0.3s0-0.1,0-0.1l1.3-4h0.6l-1.7,5h-0.7l-1.3-4.2c0-0.1,0-0.2,0-0.2c0-0.1,0-0.1,0-0.2c0,0.1,0,0.2,0,0.3
		s0,0.1,0,0.1L72,36.6h-0.7L69.7,31.7z"/>
	<path class="st0" d="M80.5,31.6c0.7,0,1.3,0.2,1.7,0.7c0.4,0.5,0.6,1.1,0.6,1.9s-0.2,1.4-0.6,1.9s-1,0.7-1.7,0.7s-1.3-0.2-1.7-0.7
		s-0.6-1.1-0.6-1.9c0-0.8,0.2-1.4,0.6-1.9C79.2,31.8,79.8,31.6,80.5,31.6z M80.5,32.1c-0.5,0-0.9,0.2-1.2,0.6
		c-0.3,0.4-0.4,0.9-0.4,1.5s0.2,1.1,0.5,1.5s0.7,0.6,1.2,0.6s0.9-0.2,1.2-0.6c0.3-0.4,0.4-0.9,0.4-1.5s-0.1-1.1-0.4-1.5
		C81.4,32.3,81,32.1,80.5,32.1z"/>
	<path class="st0" d="M86.9,31.6v0.6c-0.1,0-0.1,0-0.2,0s-0.1,0-0.2,0c-0.4,0-0.7,0.2-1,0.5s-0.4,0.7-0.4,1.3v2.6h-0.6v-5h0.6v1
		c0.1-0.4,0.3-0.6,0.6-0.8c0.2-0.2,0.5-0.3,0.9-0.3h0.1C86.7,31.5,86.8,31.6,86.9,31.6z"/>
	<path class="st0" d="M88.4,29.2H89v4.4l2.2-1.9H92l-2.4,2.1l2.7,2.9h-0.8L89,34v2.6h-0.6V29.2z"/>
	<path class="st0" d="M100.1,29.9l-0.1,0.7c-0.2-0.1-0.4-0.2-0.6-0.2c-0.2-0.1-0.4-0.1-0.6-0.1c-0.5,0-0.8,0.1-1.1,0.3
		c-0.3,0.2-0.4,0.5-0.4,0.8c0,0.4,0.4,0.9,1.3,1.4c0.1,0.1,0.2,0.1,0.3,0.2c0.6,0.4,1,0.7,1.2,0.9c0.2,0.3,0.3,0.6,0.3,0.9
		c0,0.6-0.2,1-0.6,1.4s-0.9,0.5-1.6,0.5c-0.3,0-0.5,0-0.8-0.1s-0.5-0.1-0.8-0.2l0.1-0.7c0.3,0.2,0.5,0.3,0.8,0.3s0.5,0.1,0.7,0.1
		c0.5,0,0.8-0.1,1.1-0.3c0.3-0.2,0.4-0.5,0.4-0.9c0-0.5-0.4-0.9-1.3-1.5c-0.1-0.1-0.2-0.1-0.3-0.2c-0.6-0.4-1-0.7-1.2-0.9
		s-0.3-0.6-0.3-0.9c0-0.5,0.2-0.9,0.6-1.2c0.4-0.3,0.9-0.4,1.6-0.4c0.2,0,0.4,0,0.6,0.1C99.6,29.8,99.8,29.8,100.1,29.9z"/>
	<path class="st0" d="M106,33.9v0.4h-3.5c0,0.6,0.2,1.1,0.5,1.4c0.3,0.3,0.7,0.5,1.3,0.5c0.2,0,0.4,0,0.7-0.1
		c0.2-0.1,0.4-0.2,0.7-0.3v0.6c-0.2,0.1-0.4,0.2-0.7,0.2c-0.2,0-0.5,0.1-0.7,0.1c-0.7,0-1.3-0.2-1.7-0.7c-0.4-0.5-0.6-1.1-0.6-1.9
		c0-0.8,0.2-1.4,0.6-1.9s0.9-0.7,1.6-0.7c0.6,0,1.1,0.2,1.4,0.6C105.8,32.6,106,33.2,106,33.9z M105.4,33.8c0-0.6-0.2-1-0.4-1.3
		c-0.2-0.3-0.6-0.4-1-0.4s-0.7,0.2-1,0.5s-0.4,0.7-0.5,1.3L105.4,33.8L105.4,33.8z"/>
	<path class="st0" d="M110.8,31.8v0.6c-0.2-0.1-0.3-0.2-0.5-0.2s-0.4-0.1-0.6-0.1c-0.5,0-1,0.2-1.3,0.5c-0.3,0.4-0.5,0.8-0.5,1.4
		c0,0.6,0.2,1.1,0.5,1.4c0.3,0.4,0.7,0.5,1.3,0.5c0.2,0,0.4,0,0.6-0.1c0.2,0,0.4-0.1,0.6-0.2l0.1,0.6c-0.2,0.1-0.4,0.1-0.6,0.2
		c-0.2,0-0.4,0.1-0.7,0.1c-0.7,0-1.3-0.2-1.7-0.7c-0.4-0.5-0.7-1.1-0.7-1.8s0.2-1.3,0.7-1.8s1.1-0.7,1.8-0.7c0.2,0,0.4,0,0.6,0
		C110.5,31.7,110.7,31.8,110.8,31.8z"/>
	<path class="st0" d="M112.4,31.7h0.6v2.8c0,0.6,0.1,1,0.3,1.2c0.2,0.3,0.5,0.4,0.9,0.4c0.5,0,0.8-0.2,1.1-0.5
		c0.3-0.4,0.4-0.9,0.4-1.6v-2.4h0.6v5h-0.6v-1c-0.2,0.3-0.4,0.6-0.7,0.8c-0.3,0.2-0.6,0.3-1,0.3c-0.5,0-0.9-0.2-1.2-0.5
		c-0.3-0.3-0.4-0.9-0.4-1.5C112.4,34.7,112.4,31.7,112.4,31.7z"/>
	<path class="st0" d="M120.8,31.6v0.6c-0.1,0-0.1,0-0.2,0s-0.1,0-0.2,0c-0.4,0-0.7,0.2-1,0.5S119,33.4,119,34v2.6h-0.6v-5h0.6v1
		c0.1-0.4,0.3-0.6,0.6-0.8c0.2-0.2,0.5-0.3,0.9-0.3h0.1L120.8,31.6z"/>
	<path class="st0" d="M122.2,29.4h0.7v0.8h-0.7V29.4z M122.3,31.7h0.6v5h-0.6V31.7z"/>
	<path class="st0" d="M126.1,30.2v1.5h1.2v0.5h-1.2v2.9c0,0.4,0.1,0.7,0.2,0.8c0.1,0.2,0.3,0.2,0.5,0.2c0.1,0,0.2,0,0.3,0
		s0.2,0,0.3-0.1v0.6c-0.1,0-0.2,0.1-0.3,0.1c-0.1,0-0.2,0-0.3,0c-0.4,0-0.7-0.1-0.9-0.3c-0.2-0.2-0.3-0.6-0.3-1.2v-3h-1v-0.5h1v-1.3
		L126.1,30.2z"/>
	<path class="st0" d="M128.2,31.7h0.7l1.4,4.3l1.4-4.3h0.6l-2,5.7c-0.2,0.5-0.4,0.9-0.6,1.1c-0.2,0.2-0.5,0.3-0.8,0.3
		c-0.1,0-0.2,0-0.2,0c-0.1,0-0.2,0-0.3,0v-0.6l0,0c0.2,0,0.3,0,0.4,0c0.2,0,0.4-0.1,0.6-0.3s0.3-0.6,0.5-1.1L128.2,31.7z"/>
	<path class="st0" d="M140.2,29.9l-0.1,0.6c-0.2-0.1-0.4-0.2-0.6-0.2c-0.2-0.1-0.4-0.1-0.6-0.1c-0.5,0-0.8,0.1-1.1,0.3
		c-0.3,0.2-0.4,0.5-0.4,0.8c0,0.4,0.4,0.9,1.3,1.4c0.1,0.1,0.2,0.1,0.3,0.2c0.6,0.4,1,0.7,1.2,0.9c0.2,0.3,0.3,0.6,0.3,0.9
		c0,0.6-0.2,1-0.6,1.4c-0.4,0.4-0.9,0.5-1.6,0.5c-0.3,0-0.5,0-0.8-0.1s-0.5-0.1-0.8-0.2l0.1-0.7c0.3,0.2,0.5,0.3,0.8,0.3
		c0.2,0.1,0.5,0.1,0.7,0.1c0.5,0,0.8-0.1,1.1-0.3s0.4-0.5,0.4-0.9c0-0.5-0.4-0.9-1.3-1.5c-0.1-0.1-0.2-0.1-0.3-0.2
		c-0.6-0.4-1-0.7-1.2-0.9c-0.2-0.3-0.3-0.6-0.3-0.9c0-0.5,0.2-0.9,0.6-1.2c0.4-0.3,0.9-0.4,1.6-0.4c0.2,0,0.4,0,0.6,0.1
		C139.8,29.8,140,29.8,140.2,29.9z"/>
	<path class="st0" d="M142.4,29.2h0.6v4.4l2.2-1.9h0.8l-2.4,2.1l2.7,2.9h-0.8l-2.5-2.6v2.6h-0.6V29.2z"/>
	<path class="st0" d="M147.5,29.4h0.7v0.8h-0.7V29.4z M147.5,31.7h0.6v5h-0.6V31.7z"/>
	<path class="st0" d="M150.3,29.2h0.6v7.4h-0.6V29.2z"/>
	<path class="st0" d="M153,29.2h0.6v7.4H153V29.2z"/>
	<path class="st0" d="M158.3,31.8v0.6c-0.2-0.1-0.4-0.1-0.6-0.2c-0.2,0-0.4-0.1-0.6-0.1c-0.3,0-0.6,0.1-0.8,0.2
		c-0.2,0.1-0.3,0.3-0.3,0.5c0,0.3,0.3,0.6,1,0.9c0.1,0,0.1,0.1,0.1,0.1c0.5,0.2,0.8,0.5,1,0.7s0.3,0.5,0.3,0.8c0,0.4-0.2,0.8-0.5,1
		c-0.3,0.3-0.8,0.4-1.3,0.4c-0.2,0-0.5,0-0.7-0.1c-0.2,0-0.4-0.1-0.6-0.2v-0.6c0.2,0.1,0.4,0.2,0.6,0.2c0.2,0.1,0.4,0.1,0.6,0.1
		c0.4,0,0.6-0.1,0.9-0.2c0.2-0.2,0.3-0.4,0.3-0.6c0-0.2-0.1-0.4-0.2-0.5c-0.1-0.1-0.4-0.3-1-0.6c-0.5-0.2-0.8-0.5-1-0.7
		s-0.3-0.4-0.3-0.7c0-0.4,0.1-0.7,0.4-0.9c0.3-0.2,0.7-0.3,1.2-0.3c0.2,0,0.4,0,0.6,0C157.9,31.7,158.1,31.7,158.3,31.8z"/>
	<path class="st0" d="M168.2,29.9v0.6c-0.3-0.1-0.5-0.2-0.8-0.2c-0.2,0-0.5-0.1-0.7-0.1c-0.9,0-1.6,0.3-2.1,0.8s-0.8,1.3-0.8,2.2
		c0,0.9,0.3,1.6,0.8,2.1s1.2,0.8,2.1,0.8c0.3,0,0.5,0,0.8-0.1c0.2,0,0.5-0.1,0.7-0.2v0.6c-0.2,0.1-0.4,0.1-0.7,0.2
		c-0.3,0-0.6,0.1-0.9,0.1c-1.1,0-1.9-0.3-2.5-0.9c-0.6-0.6-0.9-1.4-0.9-2.5s0.3-1.9,1-2.6c0.6-0.6,1.5-1,2.6-1c0.3,0,0.6,0,0.8,0.1
		C167.8,29.8,168,29.9,168.2,29.9z"/>
	<path class="st0" d="M171.7,31.6c0.7,0,1.3,0.2,1.7,0.7c0.4,0.5,0.6,1.1,0.6,1.9s-0.2,1.4-0.6,1.9c-0.4,0.5-1,0.7-1.7,0.7
		s-1.3-0.2-1.7-0.7s-0.6-1.1-0.6-1.9c0-0.8,0.2-1.4,0.6-1.9C170.4,31.8,171,31.6,171.7,31.6z M171.7,32.1c-0.5,0-0.9,0.2-1.2,0.6
		c-0.3,0.4-0.4,0.9-0.4,1.5s0.2,1.1,0.5,1.5s0.7,0.6,1.2,0.6s0.9-0.2,1.2-0.6c0.3-0.4,0.4-0.9,0.4-1.5s-0.1-1.1-0.4-1.5
		C172.6,32.3,172.2,32.1,171.7,32.1z"/>
	<path class="st0" d="M179.4,32.7c0.2-0.3,0.4-0.6,0.7-0.8s0.6-0.3,0.9-0.3c0.5,0,0.9,0.2,1.1,0.5c0.3,0.3,0.4,0.8,0.4,1.5v3h-0.6
		v-2.9c0-0.6-0.1-1-0.2-1.2c-0.2-0.3-0.4-0.4-0.8-0.4c-0.4,0-0.8,0.2-1,0.5s-0.4,0.8-0.4,1.4v2.6h-0.6v-2.9c0-0.6-0.1-1-0.2-1.2
		c-0.2-0.3-0.4-0.4-0.8-0.4c-0.4,0-0.8,0.2-1,0.5s-0.4,0.8-0.4,1.4v2.6h-0.6v-5h0.6v0.9c0.2-0.3,0.4-0.6,0.7-0.8
		c0.3-0.2,0.6-0.3,0.9-0.3c0.4,0,0.6,0.1,0.9,0.3C179.1,32,179.3,32.3,179.4,32.7z"/>
	<path class="st0" d="M185.3,35.8v2.9h-0.6v-7h0.6v1c0.2-0.3,0.4-0.6,0.7-0.8s0.6-0.3,1-0.3c0.6,0,1.1,0.2,1.4,0.7
		c0.4,0.5,0.5,1.1,0.5,1.8c0,0.8-0.2,1.4-0.6,1.9c-0.4,0.5-0.9,0.7-1.5,0.7c-0.3,0-0.6-0.1-0.9-0.2
		C185.7,36.3,185.5,36.1,185.3,35.8z M188.3,34.1c0-0.6-0.1-1.1-0.4-1.5c-0.3-0.4-0.6-0.5-1.1-0.5s-0.8,0.2-1.1,0.5
		c-0.3,0.4-0.4,0.9-0.4,1.5c0,0.7,0.1,1.2,0.4,1.5c0.3,0.4,0.6,0.5,1.1,0.5c0.4,0,0.8-0.2,1-0.6C188.2,35.2,188.3,34.7,188.3,34.1z"
		/>
	<path class="st0" d="M194.5,33.9v0.4H191c0,0.6,0.2,1.1,0.5,1.4c0.3,0.3,0.7,0.5,1.3,0.5c0.2,0,0.4,0,0.7-0.1
		c0.2-0.1,0.4-0.2,0.7-0.3v0.6c-0.2,0.1-0.4,0.2-0.7,0.2c-0.2,0-0.5,0.1-0.7,0.1c-0.7,0-1.3-0.2-1.7-0.7s-0.6-1.1-0.6-1.9
		c0-0.8,0.2-1.4,0.6-1.9c0.4-0.5,0.9-0.7,1.6-0.7c0.6,0,1.1,0.2,1.4,0.6C194.3,32.6,194.5,33.2,194.5,33.9z M193.9,33.8
		c0-0.6-0.2-1-0.4-1.3s-0.6-0.4-1-0.4s-0.7,0.2-1,0.5s-0.4,0.7-0.5,1.3L193.9,33.8L193.9,33.8z"/>
	<path class="st0" d="M197.1,30.2v1.5h1.2v0.5h-1.2v2.9c0,0.4,0.1,0.7,0.2,0.8c0.1,0.2,0.3,0.2,0.5,0.2c0.1,0,0.2,0,0.3,0
		s0.2,0,0.3-0.1v0.6c-0.1,0-0.2,0.1-0.3,0.1s-0.2,0-0.3,0c-0.4,0-0.7-0.1-0.9-0.3s-0.3-0.6-0.3-1.2v-3h-1v-0.5h1v-1.3L197.1,30.2z"
		/>
	<path class="st0" d="M199.9,29.4h0.7v0.8h-0.7V29.4z M199.9,31.7h0.6v5h-0.6V31.7z"/>
	<path class="st0" d="M203.7,30.2v1.5h1.2v0.5h-1.2v2.9c0,0.4,0.1,0.7,0.2,0.8c0.1,0.2,0.3,0.2,0.5,0.2c0.1,0,0.2,0,0.3,0
		s0.2,0,0.3-0.1v0.6c-0.1,0-0.2,0.1-0.3,0.1s-0.2,0-0.3,0c-0.4,0-0.7-0.1-0.9-0.3s-0.3-0.6-0.3-1.2v-3h-1v-0.5h1v-1.3L203.7,30.2z"
		/>
	<path class="st0" d="M206.4,29.4h0.7v0.8h-0.7V29.4z M206.5,31.7h0.6v5h-0.6V31.7z"/>
	<path class="st0" d="M211.2,31.6c0.7,0,1.3,0.2,1.7,0.7c0.4,0.5,0.6,1.1,0.6,1.9s-0.2,1.4-0.6,1.9c-0.4,0.5-1,0.7-1.7,0.7
		s-1.3-0.2-1.7-0.7s-0.6-1.1-0.6-1.9c0-0.8,0.2-1.4,0.6-1.9C209.9,31.8,210.5,31.6,211.2,31.6z M211.2,32.1c-0.5,0-0.9,0.2-1.2,0.6
		c-0.3,0.4-0.4,0.9-0.4,1.5s0.2,1.1,0.5,1.5s0.7,0.6,1.2,0.6s0.9-0.2,1.2-0.6c0.3-0.4,0.4-0.9,0.4-1.5s-0.1-1.1-0.4-1.5
		C212.1,32.3,211.7,32.1,211.2,32.1z"/>
	<path class="st0" d="M219.3,33.6v3h-0.6v-2.9c0-0.6-0.1-1-0.3-1.2c-0.2-0.3-0.5-0.4-0.9-0.4c-0.5,0-0.8,0.2-1.1,0.5
		S216,33.4,216,34v2.6h-0.6v-5h0.6v0.9c0.2-0.3,0.4-0.6,0.7-0.8c0.3-0.2,0.6-0.3,1-0.3c0.5,0,0.9,0.2,1.2,0.5
		C219.1,32.4,219.3,32.9,219.3,33.6z"/>
</g>
<circle class="st0" cx="108.3" cy="18.2" r="1.3"/>
<path class="st0" d="M60.2,24.9v-3.4h-1.4v0.7H57v-2.8l-1.1,0.7c-0.2-0.5-0.5-0.9-0.7-1.4v6.2h-1.8v-5.2c-0.4,0.4-0.8,0.8-1.2,1.2
	c-0.2-1-0.4-1.8-0.5-2.4c1.1-1.1,2-2.3,2.6-3.4h-2.4v-1.9h2.2c-0.5-0.8-0.9-1.4-1.2-1.9l1.7-0.9c0.4,0.5,0.8,1.1,1.4,1.9l-1.5,0.8h2
	v1.6c-0.4,0.8-0.8,1.6-1.2,2.3v0.4l0.6-0.4c0.4,0.5,0.8,1.1,1.2,1.8v-6h3.2v-2.2H62v2.2h3.2v9.3h-1.8v-0.7H62v3.4L60.2,24.9
	L60.2,24.9z M58.8,16.4h1.4v-1.7h-1.4V16.4z M58.8,19.7h1.4V18h-1.4V19.7z M63.5,14.7H62v1.7h1.5V14.7z M62,19.7h1.5V18H62V19.7z"/>
<path class="st0" d="M73.9,16.2h3.6v-0.8h-4.2V17c0,2.2-0.2,4-0.5,5.2s-0.6,2.2-1,2.7c-0.5-0.5-1.1-1-1.6-1.5
	c0.8-1.5,1.1-3.7,1.1-6.8v-5.4c4.4,0,8.3-0.2,11.8-0.6l0.8,1.8l-4.5,0.2v1h4.9v1.6h-4.9V16h4v8.6h-1.9v-0.7h-5.7v0.7H74L73.9,16.2
	L73.9,16.2z M73.2,13v0.8h4.2v-0.9L73.2,13z M81.4,17.6h-5.7v0.9h5.7V17.6z M75.8,20.6h5.7v-0.9h-5.7V20.6z M75.8,22.7h5.7v-0.9
	h-5.7V22.7z"/>
<path class="st0" d="M100.4,16.2c0.9,1.5,1.8,3,2.7,4.5l-1.6,1.1c-0.9-1.7-1.7-3.3-2.5-4.7v7.7h-2v-6.5c-0.8,1.4-1.7,2.6-2.6,3.7
	c-0.5-0.5-1-1-1.5-1.4c2-2.2,3.5-4.6,4.3-7.1h-2.9v1.6h-1.8V16c0.5,0.3,1.1,0.7,1.9,1.1l-0.9,1.6c-0.3-0.3-0.7-0.5-1-0.7v6.7h-1.9
	v-5.3c-0.3,0.8-0.7,1.6-1.2,2.3c-0.2-0.6-0.4-1.5-0.7-2.6c0.8-1.3,1.4-2.7,1.7-4.1h-1.6v-1.9h1.7v-2.6h1.9v2.6h1.3v-1.6h8.9v1.9
	h-3.5c-0.3,0.8-0.6,1.6-0.9,2.3H99V17L100.4,16.2z"/>
<path class="st0" d="M116.4,13.6l1.3,2.6c0.4-0.9,0.7-1.8,1.1-2.7l1,0.4l0.8-0.3l1.2,2.5c0.4-0.9,0.7-1.8,1-2.7l1.5,0.7
	c-0.5,1.4-1,2.8-1.6,4.2l1.5,3.4l-1.6,0.8l-0.9-2.1c-0.5,0.9-0.9,1.8-1.4,2.7c-0.2-0.2-0.4-0.3-0.6-0.5l-0.8,0.4l-1.1-2.7
	c-0.5,1-1.1,2-1.7,2.9c-0.2-0.2-0.5-0.5-0.9-0.8v2.4h-1.9V11.2h12.9v11.1c0,0.7-0.1,1.3-0.4,1.7c-0.3,0.4-0.7,0.6-1.2,0.7
	s-1.4,0.1-2.8,0.1c-0.1-0.8-0.3-1.5-0.4-2c0.7,0.1,1.4,0.1,2,0.1s0.9-0.3,0.9-0.9v-9H115v1.3L116.4,13.6z M115,14.6v6.6
	c0.6-0.9,1.1-1.9,1.7-3C116.1,16.9,115.6,15.7,115,14.6z M119.6,15.8c-0.3,0.9-0.7,1.7-1,2.5l1,2.2c0.4-0.7,0.7-1.4,1.1-2.2
	L119.6,15.8z"/>
<path class="st0" d="M133.2,15.2c0.4,0,0.7,0,0.9,0c0.4-0.7,0.7-1.4,1.1-2.2l1.7,0.8c-0.9,1.7-1.9,3.4-3,5.1
	c0.7-0.1,1.5-0.2,2.2-0.3c-0.1,0.6-0.1,1.2-0.1,1.8c-2,0.3-3.3,0.5-4.1,0.7l-0.6-1.6c0.5-0.5,1-1.3,1.7-2.5c-0.5,0-1,0.1-1.5,0.1
	l-0.5-1.6c0.7-0.8,1.5-2.4,2.4-4.7l1.8,0.7C134.6,12.6,133.9,13.9,133.2,15.2z M131.4,24.1l-0.3-2c1.2-0.1,3-0.4,5.4-0.8
	c-0.1,0.8-0.1,1.5-0.1,2C134.3,23.6,132.6,23.9,131.4,24.1z M136.6,14.6c1.1-1.3,2-2.6,2.7-4l1.9,0.3c-0.2,0.4-0.4,0.8-0.7,1.1h4.1
	v1.7c-0.5,1-1.3,1.9-2.2,2.7c0.9,0.3,1.8,0.6,2.9,0.7c-0.2,0.7-0.3,1.4-0.4,1.9c-1.7-0.4-3.1-0.9-4.2-1.5c-1.2,0.6-2.6,1.1-4.2,1.5
	c-0.3-0.7-0.5-1.3-0.7-1.7c1.3-0.3,2.3-0.6,3.2-0.9c-0.3-0.3-0.6-0.6-0.9-1c-0.2,0.2-0.4,0.4-0.6,0.6
	C137.2,15.6,136.9,15.2,136.6,14.6z M137,24.9v-5.8h7.3v5.8h-1.8v-0.7h-3.6v0.7C138.9,24.9,137,24.9,137,24.9z M142.5,20.9h-3.6v1.6
	h3.6V20.9z M139.5,13.8c-0.1,0.1-0.2,0.2-0.3,0.4c0.4,0.6,0.9,1.1,1.4,1.5c0.8-0.5,1.4-1.1,1.8-1.9H139.5z"/>
<path class="st0" d="M149.7,16.4h4.3c0.3-0.7,0.6-1.4,0.9-2.2l2.3,0.6l-0.8,1.6h7.4v1.8h-2.6c-0.4,1.3-1.1,2.4-1.9,3.3l4.1,1.6
	l-1,1.9l-4.8-2.2c-1.6,0.9-3.9,1.6-6.8,2.1c-0.4-0.8-0.7-1.4-1-1.9c2.2-0.3,4-0.7,5.4-1.2c-1.3-0.5-2.4-1-3.4-1.4
	c0.5-0.7,0.9-1.5,1.4-2.2h-3.4L149.7,16.4C149.8,16.4,149.7,16.4,149.7,16.4z M155.3,11.1l2.3-0.5l0.5,1.5h5v3.2H161v-1.4h-8.9v1.3
	H150v-3.1h5.5C155.6,11.8,155.4,11.4,155.3,11.1z M154.5,19.6l2.7,1c0.7-0.6,1.3-1.4,1.7-2.5h-3.5C155,18.7,154.8,19.2,154.5,19.6z"
	/>
<path class="st0" d="M167.8,22.5h5.4v-1.7H169v-1.9h4.2v-1.5h-2.7v-1.1c-0.6,0.5-1.3,0.9-2,1.3c-0.3-0.4-0.7-1-1.3-1.7
	c3-1.7,5.1-3.4,6.2-5.3h2.5l-0.4,0.5c1.2,1.8,3.2,3.3,5.9,4.6c-0.5,0.6-0.9,1.2-1.3,1.7c-0.7-0.4-1.4-0.8-2-1.2v1.2h-2.8v1.5h4.3
	v1.9h-4.3v1.7h5.4v1.9h-12.9L167.8,22.5L167.8,22.5z M174.3,12.7c-0.8,1-1.7,2-2.9,2.9h5.8C176,14.7,175.1,13.8,174.3,12.7z"/>
<path class="st0" d="M187.4,16.8h10.9v4.3c0.8,0.3,1.4,0.6,1.8,0.7c-0.3,1.3-0.6,2.1-0.9,2.4c-0.3,0.3-0.9,0.5-1.7,0.5h-1.8
	c-1.4,0-2.1-0.7-2.1-2v-1.4h-1.7c-0.2,0.8-0.4,1.4-0.7,1.9c-0.3,0.4-0.8,0.8-1.5,1.1c-0.7,0.3-1.5,0.6-2.5,0.8
	c-0.4-0.5-0.8-1.1-1.2-1.7c2.4-0.3,3.7-0.9,4-2h-2.5v-4.6C187.5,16.8,187.4,16.8,187.4,16.8z M194.9,13.6h2.3
	c-0.3,0.3-0.5,0.6-0.8,0.9h3.6V16h-14.1v-1.6h3.5l-0.7-0.9h2.3c0.2,0.3,0.4,0.6,0.7,0.9h2.5C194.4,14.2,194.6,13.9,194.9,13.6z
	 M186.5,11.8h5.3l-0.3-1.2l2.4-0.1l0.1,1.2h5.4v1.6h-13v-1.5H186.5z M196.3,19.7v-1.3h-6.9v1.3H196.3z M196.3,23.1h0.7
	c0.3,0,0.5,0,0.6-0.1c0.2-0.1,0.3-0.2,0.3-0.4c0-0.2,0.1-0.6,0.3-1.3h-2.6v1.1C195.6,22.9,195.8,23.1,196.3,23.1z"/>
<path class="st0" d="M204.5,20.1c1.1-0.4,2.1-0.9,2.9-1.4h-2.5v-1.4h3.4v-0.6h-2.4v-1.1h2.4V15h-1.4v-1.1h1.4v-0.6h1.8v0.6h2.9v-0.6
	h1.8v0.6h1.4V15h-1.4v0.6h2.5v1.1h-2.5v0.6h3.5v1.4h-2.5c0.9,0.6,1.8,1.1,2.8,1.4c-0.2,0.3-0.5,0.8-0.9,1.5
	c-0.6-0.3-1.1-0.6-1.7-0.9v1.8h-1.7v-1.9H209v1.9h-1.7v-2c-0.5,0.4-1.1,0.7-1.7,1C205.1,21,204.8,20.5,204.5,20.1z M210.7,21.1h1.8
	c-0.1,0.4-0.2,0.8-0.3,1.1c1.9,0.4,3.8,0.8,5.7,1.2L217,25c-1.8-0.5-3.7-1.1-5.7-1.6c-1,0.9-2.9,1.4-5.8,1.6
	c-0.2-0.6-0.5-1.2-0.8-1.7c2.2-0.1,3.8-0.3,4.6-0.6C210.2,22.4,210.6,21.8,210.7,21.1z M218.1,14.4h-1.5v-1.5h-10.1v1.5H205v-2.9
	h5.6c-0.1-0.3-0.2-0.5-0.3-0.8l2.3-0.1c0.1,0.2,0.2,0.6,0.4,1h5.4v2.8H218.1z M213.6,18.6h-4.3c-0.2,0.3-0.5,0.5-0.8,0.7h5.8
	C214.1,19.1,213.9,18.9,213.6,18.6z M210.1,15.5h2.9v-0.6h-2.9V15.5z M210.1,17.3h2.9v-0.6h-2.9V17.3z"/>
<path class="st1" d="M12.4,8.2C12,8.6,11.8,9,11.2,9c-0.1,0-0.4,0.2-0.4,0.4c0,0.6-0.5,0.8-0.8,1.2c-0.5-0.5-0.9-0.9-1.3-1.3
	C8.6,9.2,8.6,9,8.7,8.9C8.8,8.5,9,8.1,9.2,7.8C9.4,7.6,9.7,7.4,10,7.2c1-0.5,1-0.4,1.7,0.3C11.8,7.8,12.1,8,12.4,8.2z"/>
<path class="st1" d="M35.3,8.2c0.5-0.4,0.9-0.9,1.3-1.2c0.1-0.1,0.3-0.1,0.5-0.1c0.4,0.1,0.8,0.3,1.1,0.5s0.5,0.6,0.6,0.9
	c0.4,0.8,0.4,0.8-0.3,1.4c-0.3,0.3-0.5,0.6-0.8,0.9c-0.4-0.4-0.9-0.6-0.8-1.2c0-0.1-0.2-0.4-0.4-0.4C36,9.1,35.8,8.6,35.3,8.2z"/>
<path class="st1" d="M9.5,10.4c-1,1.1-2.1,0.7-3.2,0.4c0,0.1,0,0.2,0,0.2s0.1,0,0.1,0.1c0.1,0.1,0.3,0.2,0.4,0.4
	c0,0.1-0.1,0.4-0.2,0.4c-0.2,0-0.5-0.1-0.6-0.2C5.6,11,6.1,10,6.9,9.8c0.5-0.1,0.9-0.2,1.4-0.3c0.1,0,0.2,0,0.3,0.1
	C8.9,9.9,9.2,10.1,9.5,10.4z"/>
<path class="st1" d="M12.6,4.6c0,0.2,0,0.5,0.1,0.7c0.3,1,0.2,1.6-0.5,2.4c-0.3-0.4-0.6-0.7-0.9-1c0.1-0.4,0.2-0.9,0.3-1.3
	c0.1-0.6,0.6-1.1,1.1-1.2c0.2,0,0.5,0.1,0.8,0.2c0.1,0.1,0.1,0.3,0.1,0.5c0,0.1-0.3,0.2-0.3,0.2C13,5,12.9,4.9,12.8,4.7
	c0,0,0-0.1,0-0.2C12.7,4.6,12.7,4.6,12.6,4.6z"/>
<path class="st1" d="M36.4,6.7c-0.3,0.3-0.6,0.6-0.9,1C34.9,7,34.6,6.3,35,5.4c0.1-0.3,0.1-0.6,0.2-0.8h-0.1c0,0-0.1,0-0.1,0.1
	c0,0.3-0.1,0.5-0.4,0.5c-0.1,0-0.4-0.2-0.4-0.2c0.1-0.2,0.2-0.5,0.3-0.6c0.6-0.4,1.6,0.3,1.7,1.2C36.2,5.8,36.3,6.3,36.4,6.7z"/>
<path class="st1" d="M38.2,10.4c0.3-0.3,0.6-0.6,1-0.8c0.1-0.1,0.2-0.1,0.3,0c0.4,0.1,0.7,0.2,1.1,0.3c0.6,0.1,1.1,0.5,1.2,1.1
	c0,0.3-0.1,0.6-0.2,0.8c0,0.1-0.3,0.1-0.5,0.1c-0.1,0-0.2-0.3-0.2-0.4c0-0.1,0.2-0.2,0.4-0.3c0,0,0.1,0,0.2,0
	c-0.3-0.3-0.3-0.3-0.8-0.1C39.8,11.4,39,11.1,38.2,10.4z"/>
<path class="st1" d="M6.7,3.2C6.9,3.4,7,3.5,7.2,3.7c-0.3,0.8-0.7,1.6-1,2.5C5.7,6,5.6,5.7,5.9,5.2C6.2,4.5,6.4,3.9,6.7,3.2z"/>
<path class="st1" d="M42.8,4.9c-0.2,0.5-0.5,0.6-0.9,0.3c-0.6-0.3-1.3-0.6-2-0.9C40,4,40.2,3.8,40.7,4.1C41.4,4.4,42.1,4.7,42.8,4.9
	z"/>
<path class="st1" d="M7,6.9C6.6,6.7,6.4,6.5,6.6,6C7,5.4,7.2,4.7,7.5,4c0.4,0.3,0.6,0.5,0.3,1C7.5,5.6,7.3,6.2,7,6.9z"/>
<path class="st1" d="M39.1,5.3c0.2-0.5,0.4-0.6,0.9-0.4c0.6,0.3,1.3,0.6,2,0.9c-0.2,0.4-0.5,0.6-1,0.3C40.4,5.8,39.7,5.6,39.1,5.3z"
	/>
<path class="st1" d="M5.8,2.5C6.4,2.7,6.4,3,6.2,3.4c-0.3,0.7-0.6,1.3-0.8,2C4.9,5.1,4.8,4.7,5.1,4.3C5.4,3.7,5.6,3.1,5.8,2.5z"/>
<path class="st1" d="M43.5,4.1c-0.2,0.6-0.5,0.5-0.9,0.4c-0.6-0.3-1.3-0.6-1.9-0.8c0.3-0.5,0.6-0.5,1.1-0.3
	C42.3,3.6,42.9,3.8,43.5,4.1z"/>
<path class="st1" d="M8.3,4.8c0.5,0.3,0.5,0.7,0.3,1.1C8.3,6.4,8.1,7,7.9,7.5C7.4,7.4,7.3,7.1,7.5,6.7C7.8,6.1,8,5.5,8.3,4.8z"/>
<path class="st1" d="M38.4,6.1c0.1-0.2,0.2-0.4,0.4-0.6c0.8,0.3,1.6,0.7,2.3,1c-0.3,0.4-0.6,0.6-1,0.3C39.6,6.6,39,6.4,38.4,6.1z"/>
<path class="st1" d="M4.6,4.5C4.1,4.1,4,3.8,4.3,3.3c0.2-0.4,0.4-0.9,0.6-1.4C5.1,2,5.3,2.1,5.5,2.2C5.2,3,4.9,3.7,4.6,4.5z"/>
<path class="st1" d="M41.5,2.8c0.4-0.5,0.7-0.5,1.2-0.3c0.4,0.2,0.9,0.4,1.4,0.6c-0.1,0.2-0.2,0.4-0.3,0.6C43,3.5,42.3,3.2,41.5,2.8
	z"/>
<path class="st1" d="M9.1,5.7c0.3,0.5,0.5,0.9,0.7,1.2C9.4,7.3,9,7.6,8.6,8c0,0-0.2-0.1-0.4-0.2C8.5,7.1,8.8,6.5,9.1,5.7z"/>
<path class="st1" d="M39.1,8c-0.4-0.4-0.7-0.7-1.1-1.1c0-0.1,0.1-0.2,0.2-0.4c0.7,0.3,1.3,0.6,2.1,0.9C39.8,7.6,39.4,7.9,39.1,8z"/>
<path class="st1" d="M4.5,1.7C4.3,2.3,4.1,2.8,3.8,3.4c-0.1,0-0.1,0-0.2,0c0-0.4-0.3-0.9-0.2-1.2C3.7,1.6,4.1,1.5,4.5,1.7z"/>
<path class="st1" d="M44.3,2.8c-0.6-0.2-1.1-0.5-1.6-0.7V2c0.4-0.1,0.9-0.4,1.2-0.3C44.4,1.9,44.5,2.3,44.3,2.8z"/>
<path class="st1" d="M2.6,2.3C3,1.7,3.4,1.2,4,0.9C4.1,1,4.1,1,4.2,1.1C3.7,1.5,3.2,2,2.8,2.5C2.7,2.4,2.7,2.3,2.6,2.3z"/>
<path class="st1" d="M45,2.5c-0.6-0.6-1-1-1.6-1.6C44.1,1,44.9,1.9,45,2.5z"/>
<g>
	<g>
		<path class="st1" d="M16.7,10.1l0.8-0.1c0.1,0.4,0.3,0.6,0.7,0.6c0.2,0,0.3,0,0.4-0.1s0.2-0.2,0.2-0.3s-0.1-0.2-0.2-0.3
			s-0.3-0.1-0.7-0.2c-0.4-0.1-0.6-0.2-0.8-0.4c-0.2-0.2-0.3-0.4-0.3-0.6c0-0.3,0.1-0.5,0.4-0.7c0.2-0.2,0.6-0.3,0.9-0.3
			c0.9,0,1.3,0.3,1.4,1h-0.8c0-0.3-0.2-0.5-0.6-0.5c-0.1,0-0.3,0-0.4,0.1s-0.1,0.1-0.1,0.2c0,0.1,0.1,0.2,0.2,0.2s0.3,0.1,0.5,0.2
			C18.6,9,18.8,9,18.9,9.1c0.2,0.1,0.3,0.2,0.4,0.3c0.1,0.2,0.2,0.4,0.2,0.6c0,0.3-0.1,0.6-0.4,0.8c-0.2,0.2-0.6,0.3-1.1,0.3
			C17.2,11.3,16.7,10.9,16.7,10.1z"/>
	</g>
	<g>
		<path class="st1" d="M20.4,11.2v-0.8h0.8v0.8H20.4z"/>
	</g>
	<g>
		<path class="st1" d="M22.1,11.2V7.8h1.4c0.2,0,0.4,0,0.6,0.1c0.2,0,0.3,0.1,0.5,0.3c0.2,0.1,0.3,0.3,0.4,0.6
			c0,0.2,0.1,0.4,0.1,0.7c0,0.5-0.1,1-0.4,1.3s-0.7,0.4-1.2,0.4H22.1z M23,8.5v2.1h0.4c0.2,0,0.3,0,0.4-0.1c0.1,0,0.2-0.1,0.3-0.3
			c0.1-0.1,0.1-0.4,0.1-0.7s0-0.6-0.1-0.7c-0.1-0.2-0.2-0.2-0.3-0.3c-0.1,0-0.3-0.1-0.5-0.1H23V8.5z"/>
	</g>
	<g>
		<path class="st1" d="M25.8,11.2v-0.8h0.8v0.8H25.8z"/>
	</g>
	<g>
		<path class="st1" d="M27.5,11.2V7.8h1.6c0.3,0,0.5,0,0.7,0.1c0.2,0,0.3,0.1,0.4,0.3s0.2,0.3,0.2,0.5c0,0.4-0.2,0.6-0.5,0.7l0,0
			c0.5,0.1,0.7,0.4,0.7,0.8c0,0.2-0.1,0.4-0.2,0.6c-0.1,0.2-0.3,0.3-0.5,0.3s-0.5,0.1-0.8,0.1C29.1,11.2,27.5,11.2,27.5,11.2z
			 M28.4,8.5v0.7h0.5c0.3,0,0.5,0,0.5-0.1c0.1-0.1,0.1-0.2,0.1-0.3s0-0.2-0.1-0.3s-0.3-0.1-0.6-0.1h-0.4V8.5z M28.4,9.8v0.8H29
			c0.3,0,0.4,0,0.5-0.1s0.1-0.2,0.1-0.3s0-0.2-0.1-0.3s-0.3-0.1-0.6-0.1C28.9,9.8,28.4,9.8,28.4,9.8z"/>
	</g>
</g>
<g>
	<path class="st1" d="M30.5,35c0.4,0.2,0.7,0.5,1,0.7l0.2-8.9v-1.1v-0.6l1.1-0.4V23h-1l0,0l0,0c0,0.1,0.1,0.3,0.1,0.4
		c0,0.8-0.6,1.4-1.4,1.4c-0.1,0-0.2,0-0.3,0c-0.5,0.5-1,1-1.5,1.5h0.6v0.3h-0.7v2.8h0.6v0.3h-0.6v1.1c0,0,2.2,0.5,2,2.9
		C30.8,33.8,30.8,34.4,30.5,35z"/>
	<path class="st1" d="M27.8,30.9v-1.1h-0.7v-0.3h0.7v-2.2c-1.1,1.1-2.3,2.1-3.4,3.1l0,0c0.6,0.5,1.2,1,1.8,1.4
		C26.6,31.4,27.2,31,27.8,30.9z"/>
	<path class="st1" d="M35.4,34.9c-0.3,0-0.6-0.1-0.8-0.3l-0.1,0.2c0.6,0.6,1.1,1.1,1.7,1.7C36.1,36.2,35.8,35.6,35.4,34.9z"/>
	<path class="st1" d="M36.9,24.5l0.1-0.4l0.1-0.4v-0.4V23h-3.8l0.5,1.3l0.2,9.9l0.1-0.2v-0.1c0-0.1-0.1-0.3-0.1-0.4
		c0-0.3,0.1-0.6,0.3-0.8l0.4-6.2H36l0.4,0.4v-0.2l0.1-0.4l0.1-0.4l0.1-0.4l0.1-0.4l0.1-0.4L36.9,24.5z"/>
	<path class="st1" d="M37.2,21.5v-0.4v-0.4v-0.4v-0.4v-0.1h-2.7c-0.4,0.5-0.9,1.1-1.3,1.6L37.2,21.5L37.2,21.5z"/>
	<path class="st1" d="M9.2,17.2L9.2,17.2v0.2v0.1v0.1v0.1v0.1v0.1V18v0.1v0.1v0.1v0.1v0.1h1.5c-0.3-0.5-0.6-0.9-0.9-1.3L9.2,17.2
		L9.2,17.2L9.2,17.2z"/>
	<path class="st1" d="M21.9,30.2c-2.7-2.3-5.2-4.8-7.4-7.2l0,0H9.6v0.3v0.4l0.1,0.4l0.1,0.4l0.1,0.4l0.1,0.4l0.1,0.4L10,26l0.1,0.4
		l0.1,0.4l0.1,0.4l0.1,0.4l0.1,0.4l0.1,0.4l0.1,0.4l0.1,0.4l0.1,0.4L11,30l0,0l0.1,0.4v0.1v0.1v0.1v0.1v0.1V31v0.1v0.1v0.1v0.1v0.1
		v0.1v0.1v0.1v0.1V32l0.2,0.5l0.2,0.5l0.2,0.5l0.2,0.5l0.2,0.5l0.2,0.5l0.7,0l0.3,0.5l0.3,0.5l0.2,0.3c0.1,0,0.2,0,0.3,0h0.1
		c0.3-0.1,0.5-0.3,0.8-0.5c-0.1,0-0.3-0.1-0.4-0.1V32l1.2-1.1l0.5-0.4l2.1-1.8v4.8c0.1-0.1,0.3-0.2,0.4-0.3V30l1.4,1.6l0.3,0.2
		c0.5-0.4,1-0.8,1.6-1.3L21.9,30.2z"/>
	<path class="st1" d="M9.3,20.3v0.4v0.4v0.4v0.1h3c-0.1-0.2-0.1-0.4-0.1-0.6s0-0.3,0.1-0.5c-0.2-0.2-0.3-0.4-0.5-0.6H9.3V20V20.3z"
		/>
	<path class="st1" d="M37.4,15.6L37.4,15.6L37.4,15.6L37.4,15.6z"/>
	<path class="st1" d="M12.4,35.5L12.2,35l-0.3-0.5l-0.1-0.2c-0.3,0.3-0.6,0.6-0.9,0.9c-0.5,0.9-0.7,1.5-0.8,1.9
		c0.2,0.1,0.4,0.2,0.5,0.3C11.2,36.8,11.9,36.2,12.4,35.5L12.4,35.5z"/>
	<path class="st1" d="M37.4,18.3L37.4,18.3v-0.2V18v-0.1v-0.1v-0.1v-0.1v-0.1v-0.1v-0.1v-0.1v-0.1V17l0,0h-0.8
		c-0.3,0.4-0.6,0.9-0.9,1.3L37.4,18.3L37.4,18.3z"/>
	<path class="st1" d="M16.7,12.6c-1-1-2-2-3-3.1c-0.4-0.4-0.7-0.8-1-1.1c-0.4,0.4-0.8,0.7-1.2,1.1c1.1,1.1,2.3,2.3,3.4,3.4
		L16.7,12.6z"/>
	<path class="st1" d="M25.5,33.7c0-0.1,0-0.3,0-0.4c-0.4-0.3-0.8-0.6-1.2-0.9v9.1v0.2c0.4-0.4,0.8-0.8,1.2-1.1l1-0.1V40v-4
		C26.7,35.9,25.6,35,25.5,33.7z"/>
	<path class="st1" d="M21.4,32.9L21.4,32.9l0.1,9.9l0.4,0.1L22,32.5C21.7,32.6,21.6,32.8,21.4,32.9z"/>
	<path class="st1" d="M16.3,36.6c-0.2,0.1-0.3,0.2-0.5,0.3c0.7,0.6,1.2,1.5,1.2,2.5c0,0.2,0,0.5-0.1,0.7l0.3,0.2l0.2,0.1
		c0.1-0.3,0.1-0.7,0.1-1C17.6,38.3,17.1,37.3,16.3,36.6z"/>
	<path class="st1" d="M18.2,35.3V41l0.3,0.2l0.1,0.1V35C18.5,35.1,18.3,35.2,18.2,35.3z"/>
	<path class="st1" d="M43.6,40c-0.1-0.2-0.3-0.5-0.4-0.6c-2.1-2.2-4.3-4.3-6.4-6.5c0.1,0.2,0.1,0.4,0.1,0.6c0,0.3-0.1,0.5-0.2,0.7
		c0.3,0.4,0.5,0.8,0.6,1.2c1.6,1.6,3.2,3.2,4.8,4.8c-0.1,0.1-0.1,0.1-0.2,0.2c-1.5-1.5-2.9-2.9-4.4-4.4c0.3,0.9,0.4,1.6,0.2,2.1
		c0.9,0.9,1.7,1.7,2.6,2.6c1.3,1.4,3.1,1.8,4.7,2.7l0.1-0.1C44.6,42.2,44.1,41.1,43.6,40z"/>
	<path class="st1" d="M29.6,36.2l0.1,3.8l0.1-0.1l0.4-0.4l0.4-0.4l0,0l0,0l0,0l0.3-0.4l0.3-0.4l0.2-0.2v-0.9
		C30.9,37,30.3,36.6,29.6,36.2z"/>
	<path class="st1" d="M11.6,12.2c0.2,0.1,0.4,0.1,0.6,0.2c0.2,0.1,0.5,0.2,0.8,0.3l0.5,0.2l-0.1,0.2l1.1-0.2
		c-1.1-1.1-2.2-2.1-3.2-3.2c-0.4,0.4-0.7,0.7-1.1,1c0.1,0.1,0.2,0.2,0.3,0.3C10.8,11.4,11.2,11.8,11.6,12.2z"/>
	<path class="st1" d="M34.3,12.4c0.7-0.3,1.4-0.4,1.9-0.4h0.1c0.4-0.4,0.8-0.8,1.3-1.2c-0.4-0.3-0.7-0.7-1-1c-1,1-1.9,1.9-2.9,2.9
		C33.9,12.6,34.1,12.5,34.3,12.4z"/>
	<path class="st1" d="M36.2,9.5c-0.3-0.3-0.7-0.7-1-1c-1.4,1.4-2.8,2.9-4.3,4.3l1.7,0.3C33.8,11.9,35,10.7,36.2,9.5z"/>
	<path class="st1" d="M8.2,38.4c0-0.2,0-0.4,0.1-0.6c-0.8,0.8-1.6,1.5-2.3,2.3c-0.1,0-0.1-0.1-0.2-0.1c0.9-0.9,1.9-1.8,2.8-2.8
		c0.1-0.9,0.6-2,1.4-3.4c-1.4,1.4-2.7,2.8-4.1,4.2c-0.7,0.7-1.6,1.4-2,2.4S3,42.3,2.6,43.3l0.1,0.1c1-0.5,2.1-0.9,3.1-1.4
		c0.3-0.2,0.7-0.4,1-0.7C7.3,40.7,8,40,8.6,39.4C8.3,39.2,8.2,38.8,8.2,38.4z"/>
	<path class="st1" d="M10.2,14.5c0.1,0.3,0.3,0.6,0.5,1.1h16.6L27.2,17h-0.1v0.1H11.6c0.3,0.4,0.6,0.8,0.9,1.3H27v1.5H14.6
		c0.3,0.3,0.5,0.6,0.5,1.1c0,0.1,0,0.3-0.1,0.4l0.1,0.1h12v0.6c-0.3,0.2-0.6,0.4-0.7,0.9h-9.9c1.7,1.8,3.5,3.6,5.4,5.3v-4.7l2.4,0.9
		v4c1.2-1.1,2.3-2.1,3.4-3.2v-0.2c0,0-0.8-0.1-0.8-1.1s0.4-1.1,0.9-1.3v-4.9H28l0.2-4l0.2,4h0.1v4.9c0,0,0.4,0.1,0.7,0.5
		c0.1-0.3,0.2-0.6,0.5-0.8c-0.1-0.1-0.2-0.2-0.3-0.3v-0.6h2c0.5-0.6,1-1.1,1.4-1.6h-3.4v-1.5H34c0.4-0.5,0.7-0.9,0.9-1.3h-5.5V17
		h-0.1l-0.1-1.4h6.6c0.2-0.4,0.4-0.8,0.5-1.1l-13-2.2L10.2,14.5z"/>
</g>
<path class="st1" d="M36.1,34.2c0.2-0.2,0.3-0.4,0.3-0.7c0-0.5-0.4-0.9-0.9-0.9s-0.9,0.4-0.9,0.9s0.4,0.9,0.9,0.9c0.1,0,0.1,0,0.2,0
	c1.1,1.8,1.5,3.1,1.1,3.5c-0.3,0.4-1.1,0.3-2.2-0.1c-2.7-1-6.8-3.8-11-7.4c2.2-1.9,4.5-4,6.5-6.2c0.1,0.1,0.3,0.1,0.4,0.1
	c0.5,0,0.9-0.4,0.9-0.9c0-0.2-0.1-0.3-0.1-0.5c0.1-0.1,0.2-0.2,0.2-0.3c4.4-4.8,6.5-8.5,5.6-9.7c-0.4-0.6-1.3-0.6-2.8-0.1
	c-0.2,0.1-0.4,0.2-0.7,0.3l0.2,0.4c0.2-0.1,0.4-0.2,0.7-0.3c1.2-0.4,2-0.5,2.2-0.1c0.6,0.8-0.9,4-5.6,9.2c-0.1,0.1-0.2,0.2-0.2,0.3
	c-0.1-0.1-0.3-0.1-0.4-0.1c-0.5,0-0.9,0.4-0.9,0.9c0,0.2,0.1,0.3,0.1,0.5c-2.1,2.2-4.3,4.3-6.6,6.2c-2.8-2.4-5.6-5.1-8-7.7
	c-0.3-0.3-0.6-0.6-0.8-0.9c0.1-0.1,0.2-0.3,0.2-0.5c0-0.5-0.4-0.9-0.9-0.9c-0.1,0-0.3,0-0.4,0.1c-3.1-3.8-4.1-6.2-3.6-6.9
	c0.3-0.4,1-0.3,2.2,0.1c0.2,0.1,0.5,0.2,0.7,0.3l0.2-0.4c-0.3-0.1-0.5-0.2-0.7-0.3c-1.4-0.5-2.4-0.5-2.8,0.1c-0.7,1,0.6,3.7,3.7,7.4
	c-0.1,0.2-0.2,0.3-0.2,0.5c0,0.5,0.4,0.9,0.9,0.9c0.1,0,0.3,0,0.4-0.1c0.3,0.3,0.6,0.6,0.8,1c2.4,2.7,5.2,5.3,8,7.7
	c-4.2,3.6-8.4,6.4-11,7.4c-0.6,0.2-1,0.3-1.4,0.3c-0.1-0.4-0.5-0.7-0.9-0.7c0,0,0,0-0.1,0c0-0.8,0.7-2.2,1.9-4.1l-0.4-0.3
	c-1,1.5-2.1,3.3-2,4.5c-0.3,0.2-0.4,0.4-0.4,0.8c0,0.5,0.4,0.9,0.9,0.9c0.4,0,0.8-0.3,0.9-0.7c0.4,0,0.9-0.1,1.6-0.4
	c2.7-1,6.9-3.9,11.2-7.5c4.3,3.6,8.5,6.5,11.2,7.5c0.7,0.3,1.2,0.4,1.7,0.4s0.8-0.1,1-0.4C37.8,37.4,37.1,35.8,36.1,34.2z"/>
</svg>
