<?xml version="1.0" encoding="utf-8"?>
<!-- Generator: Adobe Illustrator 21.0.0, SVG Export Plug-In . SVG Version: 6.00 Build 0)  -->
<svg version="1.1" id="图层_1" xmlns="http://www.w3.org/2000/svg" xmlns:xlink="http://www.w3.org/1999/xlink" x="0px" y="0px"
	 viewBox="0 0 1005 355" style="enable-background:new 0 0 1005 355;" xml:space="preserve">
<style type="text/css">
	.st0{fill:#FFFFFF;}
</style>
<path class="st0" d="M74.7,99.5c-1.5,2-2.3,4.6-3.3,6.9c-0.3,0.7-0.2,2,0.2,2.5c2.6,2.9,5.4,5.7,8.4,8.7c2.3-2.7,5.4-4,5.2-7.8
	c0-0.8,1.7-2.4,2.5-2.4c3.8,0.1,5-3,7.7-5.4c-1.8-1.7-3.4-3-4.8-4.4c-4.8-4.8-4.9-4.9-11.1-1.9C77.7,96.7,75.8,97.9,74.7,99.5z"/>
<path class="st0" d="M76.6,116.2c-1.8-1.7-3.6-3.5-5.5-5.2c-0.5-0.4-1.3-0.7-1.9-0.6c-3.1,0.7-6.1,1.5-9.2,2.3
	c-5.2,1.2-8.5,7.8-5.6,11.3c0.8,0.9,2.5,1.3,3.8,1.3c0.4,0,1.6-1.9,1.3-2.4c-0.5-1-1.8-1.7-2.7-2.4c-0.2-0.2-0.6-0.2-0.9-0.4
	c0-0.5,0-1-0.1-1.5C63.2,120.9,70.5,123.1,76.6,116.2z"/>
<path class="st0" d="M97.6,82.8c-0.4-1.4-0.4-2.9-0.6-4.3c0.4,0,0.7-0.1,1.1-0.1c0.1,0.4,0,0.9,0.2,1.2c0.8,0.9,1.5,1.9,2.5,2.3
	c0.5,0.2,2.2-0.7,2.2-1.2c0.1-1.1-0.1-2.9-0.8-3.4c-1.4-0.9-3.3-1.7-4.9-1.5c-3.6,0.4-6.6,4-7.2,7.7c-0.5,3-1.1,5.9-1.6,8.6
	c1.9,2.1,3.9,4.4,5.9,6.7C99.1,92.9,99.7,89.5,97.6,82.8z"/>
<path class="st0" d="M55.3,88.8c2.3-5.6,4.6-11,6.9-16.4c-1.2-1-2.1-1.9-3.5-3c-1.9,4.6-3.5,9-5.6,13.1
	C51.6,85.4,52.2,87.2,55.3,88.8z"/>
<path class="st0" d="M60.8,93.5c1.8-4.3,3.3-8.6,5.4-12.7c1.6-3.1,0.5-4.6-2.2-6.3c-1.9,4.6-3.5,9-5.6,13.1
	C56.8,90.9,58,92.3,60.8,93.5z"/>
<path class="st0" d="M50,83.6c1.8-4.2,3.4-8.5,5.4-12.6c1.3-2.7,1.3-4.6-2.3-5.9c-1.6,3.9-3.1,7.8-4.9,11.5
	C46.6,79.6,46.9,81.7,50,83.6z"/>
<path class="st0" d="M66.5,97.7c1.5-3.5,2.8-7.1,4.5-10.5c1.4-2.8,1.3-5-1.8-7.1c-1.7,4-3.1,8-5.1,11.8C62.6,95,63.1,96.7,66.5,97.7
	z"/>
<path class="st0" d="M45,77.8c2.1-4.9,4.1-9.6,6.1-14.4c-1.4-0.9-2.6-1.6-4-2.4c-1.4,3.3-2.4,6.4-4,9.1C41.3,73.1,42.1,75.4,45,77.8
	z"/>
<path class="st0" d="M71.4,100.6c2.6-2.5,4.8-4.6,7.4-7.1c-1.2-2-2.7-4.6-4.5-7.7c-2,4.9-3.7,9-5.6,13.4
	C69.9,99.9,71,100.4,71.4,100.6z"/>
<path class="st0" d="M37.4,63.1c-0.9,2,1.1,5.2,1.8,7.8c0.3-0.1,0.7-0.2,1-0.2c1.5-3.5,3-7,4.5-10.8C41.6,58.4,39.2,59,37.4,63.1z"
	/>
<path class="st0" d="M42.5,55.6c-0.3-0.3-0.6-0.6-0.9-1c-3.9,2.1-6.8,5.3-9.2,9.1c0.3,0.3,0.6,0.7,0.9,1
	C36.4,61.7,39.4,58.7,42.5,55.6z"/>
<path class="st0" d="M135.9,117.2c-0.7,0.5-1.6,0.7-2.7,0.7c-2.5,0-3.9-1.3-4.3-3.9l-5.4,0.4c0.3,5.1,3.6,7.6,9.8,7.6
	c3.1,0,5.4-0.7,6.9-2.1s2.3-3.1,2.3-5.1c0-1.6-0.4-2.9-1.3-3.9c-0.8-1-1.8-1.7-2.9-2.1c-1.1-0.4-2.4-0.8-4.1-1.2
	c-1.7-0.4-2.9-0.7-3.6-1.1c-0.7-0.3-1-0.8-1-1.5c0-0.6,0.3-1.1,0.9-1.4c0.6-0.3,1.4-0.5,2.3-0.5c2.1,0,3.3,1,3.6,3l5.4-0.3
	c-0.4-4.4-3.3-6.6-8.9-6.6c-2.5,0-4.5,0.5-6.2,1.6c-1.6,1.1-2.4,2.6-2.4,4.6c0,1.6,0.6,2.9,1.7,4.1c1.1,1.1,2.9,2,5.3,2.6
	s4,1,4.7,1.4c0.7,0.3,1,0.9,1,1.8C137,116.1,136.6,116.7,135.9,117.2z"/>
<rect x="147.4" y="116.5" class="st0" width="5.4" height="5.2"/>
<path class="st0" d="M175.4,118.7c1.7-1.9,2.5-4.7,2.5-8.2c0-1.9-0.3-3.7-0.8-5.2c-0.6-1.5-1.4-2.7-2.5-3.6s-2.2-1.5-3.2-1.8
	c-1.1-0.3-2.3-0.4-3.7-0.4h-9.1v22h9.3C171.2,121.6,173.7,120.7,175.4,118.7z M164.2,117.3v-13.4h1.8c1.4,0,2.5,0.1,3.3,0.4
	c0.8,0.2,1.5,0.8,2.1,1.8c0.5,1,0.8,2.5,0.8,4.6c0,2-0.3,3.5-0.8,4.5s-1.1,1.6-1.9,1.8c-0.7,0.2-1.7,0.3-2.9,0.3
	C166.6,117.3,164.2,117.3,164.2,117.3z"/>
<rect x="182.8" y="116.5" class="st0" width="5.4" height="5.2"/>
<path class="st0" d="M208.9,121.2c1.2-0.3,2.2-1,3.1-2.1c0.9-1.1,1.3-2.4,1.3-3.9c0-2.8-1.5-4.6-4.4-5.3v-0.1
	c2.2-0.9,3.4-2.5,3.4-4.7c0-1.1-0.3-2.1-1-3.1s-1.5-1.6-2.6-2c-1.1-0.3-2.5-0.5-4.3-0.5H194v22h9.6
	C206,121.6,207.8,121.5,208.9,121.2z M199.6,103.7h2.8c2,0,3.2,0.2,3.7,0.6s0.7,1,0.7,1.6c0,0.7-0.3,1.3-0.8,1.7
	c-0.5,0.4-1.7,0.6-3.5,0.6h-3v-4.5H199.6z M199.6,117.4v-5.2h3.5c1.8,0,3,0.2,3.6,0.7s0.9,1.1,0.9,1.9s-0.3,1.4-0.8,1.9
	s-1.7,0.7-3.4,0.7H199.6z"/>
<path class="st0" d="M213,276c2.3,1.5,4.5,2.9,6.7,4.3l1.5-57.7l0.2-7l0.1-3.6l7.4-2.6l0.3-11.3h-6.3c-0.1,0.1-0.2,0.2-0.3,0.3
	s-0.1,0.1-0.2,0.2c0.2,0.8,0.4,1.7,0.4,2.5c0,5-4.1,9.2-9.2,9.2c-0.6,0-1.3-0.1-1.9-0.2c-3.1,3.2-6.3,6.4-9.5,9.6h4.1v2.1h-4.6V240
	h4.2v2h-4.2v7.2c0,0,14.1,3.4,13.2,18.9C214.9,267.8,214.8,272,213,276z"/>
<path class="st0" d="M195.8,240v-14.3c-7.2,6.9-14.7,13.8-22.3,20.3v0.3c3.9,3.2,7.7,6.3,11.4,9.3c2.7-3.5,6.5-6,10.8-6.5V242h-4.4
	v-2H195.8z"/>
<path class="st0" d="M245,275.5c-1.9-0.1-3.6-0.8-5.1-1.8l-0.7,1.4c3.7,3.7,7.5,7.4,11.2,11.1C249.4,283.5,247.8,280,245,275.5z"/>
<path class="st0" d="M240.6,220.7h8.6l2.4,2.8l0.3-1.3l0.5-2.4l0.4-2.4l0.4-2.4l0.4-2.4l0.4-2.4l0.4-2.5l0.4-2.5l0.3-2.4l0.3-2.5
	l0.3-2.3h-24.5l3.5,8.7l1.2,64.2l0.6-1.2l0.3-0.7c-0.3-0.9-0.4-1.8-0.4-2.7c0-2,0.7-3.9,1.8-5.4L240.6,220.7z"/>
<path class="st0" d="M256.7,188l0.2-2.5l0.2-2.5l0.2-2.5l0.2-2.4v-0.4H240c-2.8,3.5-5.7,7.1-8.7,10.6h25.3L256.7,188z"/>
<path class="st0" d="M74.9,159.5v0.1v0.6v0.6v0.6v0.6v0.6v0.6v0.6v0.6v0.6v0.6v0.6v0.6v0.6v0.4H85c-2.1-3-4-5.8-5.6-8.5h-4.5V159.5z
	"/>
<path class="st0" d="M136.2,264.1v-20.8l9.4,10.7l1.8,1.5c3.3-2.6,6.7-5.3,10.1-8.2v-2.4c-17.3-15.1-33.7-31.1-47.8-46.7
	c-0.1-0.1-0.2-0.2-0.3-0.3h-32l0.3,2.3l0.3,2.5l0.3,2.4l0.4,2.5l0.4,2.5l0.4,2.4l0.4,2.4l0.4,2.4l0.5,2.4l0.5,2.4l0.5,2.4l0.5,2.4
	l0.6,2.4l0.6,2.4l0.6,2.4l0.6,2.4l0.6,2.3l0.7,2.3l0.7,2.3l0.7,2.3l0.2,0.5l0.2,0.5l0.2,0.5l0.2,0.5l0.2,0.5l0.2,0.5l0.2,0.5
	l0.2,0.5l0.2,0.5l0.2,0.5l0.2,0.5l0.2,0.5l0.2,0.5l0.2,0.5l0.2,0.5l0.2,0.5l1.2,3.3l1.3,3.3l1.3,3.3l1.4,3.2l1.5,3.2l1.5,3.1
	l1.6,3.1l1.7,3l1.7,3l1.2,2c0.6-0.1,1.1-0.1,1.7-0.1c0.2,0,0.3,0,0.5,0c1.6-0.9,3.3-1.9,5.1-3c-0.9-0.3-1.7-0.5-2.6-0.7V256l7.9-6.8
	l3-2.6L134,235v31.3C134.3,265.5,135.3,264.8,136.2,264.1z"/>
<path class="st0" d="M92.3,177.8H75.6v0.4l0.2,2.4l0.2,2.5l0.2,2.5l0.2,2.5v0.4h19.2c-0.5-1.1-0.8-2.4-0.8-3.7
	c0-1.1,0.2-2.1,0.5-3.1C94.3,180.3,93.2,179,92.3,177.8z"/>
<path class="st0" d="M258.2,149.6c0,0.1-0.1,0.2-0.1,0.3h0.1V149.6z"/>
<path class="st0" d="M92.7,272.6l-0.5-1.2c-2,2-4,4-6.1,6c-3.4,5.9-4.8,9.7-5.3,12.1c1.2,0.5,2.3,1.2,3.2,2.1
	c4.1-4,8.2-8.1,12.2-12.1l-0.2-0.4l-1.7-3.2L92.7,272.6z"/>
<path class="st0" d="M258,167.7v-0.6v-0.6v-0.6v-0.6v-0.6v-0.6v-0.6v-0.6v-0.6v-0.6v-0.6v-0.6v-0.6v-0.1h-5.3
	c-1.7,2.8-3.6,5.6-5.6,8.5h10.7L258,167.7z"/>
<path class="st0" d="M89.5,110.5c7.4,7.4,14.7,14.7,22.1,22.1l11.7-2c-6.5-6.6-13.1-13.2-19.6-19.8c-2.4-2.4-4.6-5-6.7-7.2
	C94.1,106.2,91.9,108.3,89.5,110.5z"/>
<path class="st0" d="M180.9,267.3c0-0.9,0.1-1.8,0.2-2.7c-2.5-1.9-5-3.9-7.5-6l0.1,59v1.3c2.7-2.4,5.3-4.9,8-7.3l6.7-0.6v-3.3
	l0.2-25.7C188.7,282,181.1,275.8,180.9,267.3z"/>
<path class="st0" d="M154.6,262.6v63.5l2.5,0.9l0.3-67.4c-1.1,0.9-2.1,1.7-3.2,2.6L154.6,262.6z"/>
<path class="st0" d="M121.1,286.1c-1,0.6-2,1.3-3,1.9c4.7,3.8,7.8,9.7,7.8,16.4c0,1.5-0.2,3-0.5,4.4l1.7,1.5l1.1,0.9
	c0.6-2.1,0.9-4.4,0.9-6.7C129.2,297.1,126.1,290.6,121.1,286.1z"/>
<path class="st0" d="M133.3,314.9l2.1,1.4l0.8,0.5v-41c-1,0.7-1.9,1.4-2.9,2.1L133.3,314.9L133.3,314.9z"/>
<path class="st0" d="M298.1,308.6c-0.7-1.5-1.7-3-2.9-4.2c-13.8-14-27.6-27.9-41.4-41.9c0.5,1.2,0.9,2.5,0.9,3.8
	c0,1.7-0.4,3.3-1.3,4.7c1.7,2.8,3,5.4,4.2,7.8c10.4,10.4,20.8,20.8,31.2,31.2c-0.4,0.4-0.7,0.7-1.1,1.1c-9.5-9.5-19-18.9-28.4-28.4
	c2.2,5.7,2.6,10.2,1.3,13.6c5.6,5.5,11.1,11.1,16.6,16.6c8.7,8.8,20.1,11.7,30.2,17.6c0.2-0.3,0.5-0.5,0.7-0.8
	C304.8,322.7,301.5,315.6,298.1,308.6z"/>
<path class="st0" d="M207.9,308.4l0.5-0.4l2.5-2.3l2.4-2.4l0,0l0.1-0.1l0,0l2.2-2.3l2.3-2.5l1.4-1.6l0.1-5.6
	c-3.7-2.2-7.7-4.6-11.8-7.4L207.9,308.4z"/>
<path class="st0" d="M109.3,132.9c-7-7-14-13.9-20.9-20.9c-2.5,2.3-4.7,4.4-7,6.6c0.7,0.7,1.1,1.3,1.6,1.8c2.6,2.6,5.2,5.1,7.8,7.7
	c1.2,0.3,2.4,0.8,3.7,1.2c1.6,0.6,3.3,1.3,5,2.1l3,1.3l-0.6,1.4L109.3,132.9z"/>
<g>
	<path class="st0" d="M267,102.9c-1-2.1-2.3-4.4-4-5.9c-1.9-1.6-4.5-2.4-6.9-3.3c-0.9-0.3-2.3-0.1-3,0.4c-2.8,2.4-5.5,5.1-8.5,8
		c2.8,2.3,4,5.5,7.8,5.4c0.8,0,2.4,1.7,2.4,2.5c-0.1,3.9,3.1,5,5.4,7.7c1.8-2,3.4-3.8,5.1-5.6C269.3,108,269.5,108,267,102.9z"/>
	<path class="st0" d="M239.2,81.9c2.1,0.1,2.6-1.4,2.6-3.2c0-0.1,0.3-0.2,0.4-0.3c0.3,0.1,0.6,0.1,0.9,0.2c-0.4,1.8-0.5,3.7-1.1,5.4
		c-2.1,5.7-0.1,10.4,3.5,14.9c2.2-2.3,4.2-4.5,5.9-6.4c-0.6-3-1.3-5.8-1.6-8.6c-0.7-5.7-6.8-10-10.9-7.5c-1.2,0.7-1.7,2.6-2.2,4.1
		C236.8,80.6,238.4,81.8,239.2,81.9z"/>
	<path class="st0" d="M278.5,112.4c-2.4-0.3-4.7-1.2-7.1-1.7c-0.7-0.1-1.7-0.2-2.2,0.2c-2.1,1.6-4,3.4-6.2,5.3
		c5.4,4.3,10.3,6.2,16.2,3.7c3.2-1.3,3.3-1.1,4.9,0.5c-0.5,0-1-0.1-1.3,0.1c-0.9,0.7-2,1.3-2.3,2.2c-0.2,0.7,0.6,2.3,1.3,2.5
		c0.9,0.3,2.8,0.1,3.1-0.5c0.9-1.7,1.8-3.7,1.6-5.5C285.9,115.6,282.3,113,278.5,112.4z"/>
	<path class="st0" d="M273.4,77.5c4.6,1.9,9,3.5,13.2,5.6c3,1.5,4.7,0.7,6.2-2.2c-4.5-1.9-9-3.5-13.2-5.7
		C276.3,73.6,274.9,75,273.4,77.5z"/>
	<path class="st0" d="M268.8,83.1c4.2,1.8,8.5,3.3,12.6,5.4c3,1.5,4.7,0.6,6.2-2.2c-4.4-1.9-8.8-3.5-13-5.5
		C271.6,79.2,270,80,268.8,83.1z"/>
	<path class="st0" d="M278.7,72.2c4.2,1.8,8.5,3.5,12.6,5.5c2.7,1.2,4.7,1.3,5.9-2.3c-3.9-1.7-7.8-3-11.4-5
		C282.7,68.7,280.6,69.3,278.7,72.2z"/>
	<path class="st0" d="M282.1,91.4c-5.1-2.1-10.1-4.3-15.2-6.4c-0.9,1.3-1.6,2.4-2.4,3.7c3.8,1.6,7.5,2.9,10.9,4.8
		C278.4,95.1,280.2,94.2,282.1,91.4z"/>
	<path class="st0" d="M284.6,67.3c4.9,2,9.7,4,14.5,6c0.8-1.5,1.5-2.7,2.2-4c-3.2-1.4-6.3-2.5-9.1-4C289.2,63.7,286.8,64,284.6,67.3
		z"/>
	<path class="st0" d="M276.5,96.5c-4.9-2.1-9.1-3.8-13.5-5.6c-0.6,1.3-1.1,2.4-1.4,2.8c2.4,2.4,4.5,4.5,7.2,7.2
		C270.7,99.8,273.3,98.3,276.5,96.5z"/>
	<path class="st0" d="M299.1,59.6c-2-0.8-5.1,1.2-7.7,1.9c0.1,0.3,0.2,0.6,0.3,1c3.5,1.5,7,3,10.7,4.5
		C303.8,63.9,303.2,61.3,299.1,59.6z"/>
	<path class="st0" d="M296.9,55.1c3.6,3.6,6.7,6.6,10.3,10.3C306.8,60.9,301.4,55.5,296.9,55.1z"/>
	<path class="st0" d="M233.4,131.2c1.5-0.7,3-1.3,4.4-1.8c4.8-1.8,8.8-2.7,12.2-2.7c0.3,0,0.5,0,0.7,0c2.7-2.7,5.4-5.4,8.1-8
		c-2.5-2.3-4.8-4.3-6.8-6.2C245.8,118.7,239.6,125,233.4,131.2z"/>
	<path class="st0" d="M243.5,103.6c-9.2,9.3-18.5,18.7-27.7,28l11.2,1.9c7.7-7.7,15.5-15.4,23.2-23.2
		C248.2,108.2,246,106,243.5,103.6z"/>
</g>
<path class="st0" d="M80.5,268.4c-8.9,9-17.8,18-26.7,27c-4.8,4.8-10.4,8.9-13.1,15.6c-2.6,6.4-5.8,12.6-8.7,18.8
	c0.2,0.2,0.4,0.3,0.6,0.5c6.7-3.1,13.4-6.1,20.1-9.4c2.3-1.1,4.4-2.6,6.2-4.4c4.1-4,8.1-8,12.2-12c-1.6-1.7-2.7-3.9-2.7-6.5
	c0-1.4,0.3-2.7,0.9-3.9c-5.1,5-10.1,10-15.2,14.9c-0.4-0.4-0.7-0.7-1.1-1.1c6.1-6,12.1-12,18.2-17.9
	C71.7,284.6,74.8,277.3,80.5,268.4z"/>
<path class="st0" d="M250.7,142.7l-84.1-14.2l-84.9,14.3c0.7,1.9,1.7,4.2,3.2,7h107.5l-0.4,9h-0.9v0.7H90.7c1.7,2.6,3.7,5.4,6.1,8.5
	h94.3v9.7H110c1.9,1.7,3.2,4.1,3.2,6.9c0,1-0.1,1.9-0.4,2.8c0.2,0.3,0.5,0.6,0.8,0.8h77.6v4.1c-1.9,1.2-3.6,2.8-4.7,5.5h-64.1
	c10.8,11.5,22.7,23.1,35.2,34.4l0.2-30.5l15.8,5.9l0.1,25.7c7.6-6.8,15.1-13.9,22.3-20.9v-1.2c0,0-5.4-0.7-5.2-6.9
	c0.2-6.3,2.6-7.1,5.9-8.5v-31.5h0.7l1.1-26.1l1.1,26.1h0.7V196c0,0,2.9,0.4,4.6,2.9c0.5-2,1.5-3.7,3-4.9c-0.7-0.7-1.4-1.2-2.1-1.7
	v-4H219c3.3-3.8,6.3-7.3,9-10.6h-22.2V168h29.9c2.3-3.1,4.3-5.9,6.1-8.5h-35.9v-0.7H205l-0.4-8.9h43.1
	C248.9,147,250,144.6,250.7,142.7z"/>
<path class="st0" d="M251.4,266.3c0-3.2-2.7-5.9-5.9-5.9s-5.9,2.6-5.9,5.9s2.6,5.9,5.9,5.9c0.4,0,0.9-0.1,1.3-0.1
	c7.1,11.4,9.9,19.8,7.5,23c-1.8,2.3-6.9,2-14.3-0.7c-17.2-6.4-44.1-24.9-71.6-48.1c14.5-12.5,29.1-26.2,42.4-40.1
	c0.8,0.5,1.8,0.7,2.8,0.7c3.2,0,5.9-2.7,5.9-5.9c0-1.2-0.3-2.3-0.9-3.2c0.5-0.6,1.1-1.2,1.6-1.8c28.4-31.4,42.1-55,36.6-63.1
	c-2.6-3.8-8.6-4-17.9-0.5c-1.4,0.5-2.9,1.1-4.4,1.8l1.2,2.7c1.5-0.6,2.9-1.2,4.2-1.7c7.6-2.8,12.8-3,14.4-0.6
	c3.7,5.5-6.1,26-36.4,59.5c-0.5,0.6-1.1,1.1-1.6,1.7c-0.8-0.5-1.8-0.7-2.8-0.7c-3.2,0-5.9,2.6-5.9,5.9c0,1.2,0.3,2.2,0.9,3.2
	c-13.4,14-28,27.7-42.5,40.2c-18-15.4-36.2-32.8-51.9-50.2c-1.9-2.1-3.7-4.1-5.4-6.1c0.7-1,1.1-2.1,1.1-3.4c0-3.2-2.7-5.9-5.9-5.9
	c-0.9,0-1.7,0.2-2.5,0.6c-20.3-24.7-26.7-40.1-23.6-44.7c1.7-2.5,6.8-2.3,14.4,0.6c1.5,0.5,3,1.2,4.6,1.9l1.2-2.7
	c-1.7-0.7-3.3-1.4-4.8-2c-9.3-3.4-15.3-3.3-17.9,0.5c-4.6,6.8,4.2,24.3,23.7,48.2c-0.7,1-1.2,2.2-1.2,3.5c0,3.3,2.6,5.9,5.9,5.9
	c1,0,1.8-0.2,2.6-0.6c1.8,2,3.6,4.1,5.5,6.2c15.7,17.3,33.8,34.7,51.8,50.1c-27.4,23.3-54.3,41.7-71.6,48.1
	c-3.7,1.4-6.7,2.1-9.2,2.3c-0.7-2.5-3-4.4-5.7-4.4c-0.1,0-0.2,0-0.3,0c-0.2-5.1,4.2-14.6,12.5-26.4l-2.4-1.7
	c-6.7,9.6-13.7,21.6-12.9,29c-1.6,1-2.7,2.9-2.7,4.9c0,3.3,2.6,5.9,5.9,5.9c2.8,0,5.1-1.9,5.7-4.5c2.8-0.1,6.2-0.9,10.1-2.4
	c17.6-6.5,44.9-25.3,72.8-49c27.8,23.6,55.2,42.4,72.8,49c4.4,1.6,8.1,2.5,11,2.5c3,0,5.3-0.9,6.6-2.7c4-5.2-0.9-16.1-7.2-26.1
	C250.6,269.7,251.4,268.1,251.4,266.3z"/>
<g>
	<path class="st0" d="M412,65.2h5.7c0.8,0,1.5-1.9,2.3-5.7l3.4-3.4c-2.3-6.8-4.2-19.2-5.7-19.2c-3.8-3.8-6.5-12.9-8-12.9h-9.1
		c-3.1,0-5.7-0.5-8,0.2l-4.6,5.4h-2.3c-1.5,0.8-3.4,7.8-5.7,8.6c-7.6-0.8-14.1,3.5-19.4,2L355,42l-1.1,1.1
		c18.3,16.7,39.2,23.3,53.7,23.3L412,65.2z"/>
	<path class="st0" d="M544.7,111.7l1.1-1.1c9.9-4.6,14.9-8.4,14.9-11.4c3-0.8,6.5-3.4,10.3-8v-8l-14.9-11.4c-3.8-6.1-6.5-9.1-8-9.1
		l-3.4,1.1l-3.4,3.4h-6.9H531c-3.1,6.1-5,9.1-5.7,9.1h-5.7l-9.1,1.1h-1.1c-0.8,0-1.1-3.4-1.1-10.3V56.9l-2.3-8c0-1.5,1.1-4.2,3.4-8
		l-3.4-6.8c0-0.8,1.5-2.3,4.6-4.6v-3.4c-1.5-0.7-3.4-1.1-5.7-1.1c-4.6,0-7.6-2.3-9.1-6.8c-5.3,0-8-0.8-8-2.3c-3.1,0-4.6,0.8-4.6,2.3
		c-3.1,0.8-4.6,2.3-4.6,4.6L476,25c-5.3,0.8-8,1.5-8,2.3l3.4,3.4l-4.6,3.4c0,2.3,0.4,3.4,1.1,3.4h4.6h1.1c4.6,2.3,7.6,5.7,9.1,10.3
		l-1.1,4.6l4.6,19.4c0,1.5-1.5,3.4-4.6,5.7v1.1l1.1,3.4c-1.5,1.5-3.1,2.3-4.6,2.3c-4.6,3-8.4,4.6-11.4,4.6h-3.4
		c-3.1,1.5-5.3,2.3-6.9,2.3c-3.8,0-8,2.3-12.6,6.9v1.1c0,0.8,0.4,1.1,1.1,1.1l4.6-2.3h2.3c7.6,6.8,11.8,10.3,12.6,10.3l16-1.1h1.1
		c0.8,0,2.3,1.1,4.6,3.4l-3.4,2.3c0,6.8-2.3,10.3-6.9,10.3c-5.3,3.8-8.4,5.7-9.1,5.7h-1.1c-0.8,0-2.3-0.8-4.6-2.3
		c-4.6-5.3-12.2-10.3-22.9-14.8c-2.3,0-3.4,0.4-3.4,1.1v1.1c5.3,7.6,8,12.5,8,14.8v5.7c0.8,1.5,1.1,5.7,1.1,12.5
		c1.5,3.8,3,10.7,4.6,20.5v5.7c0,6.1,3.8,9.9,11.4,11.4h1.1c8.4-4.6,14.1-8,17.2-10.3c1.5,0,2.3,1.1,2.3,3.4l-1.1,4.6l1.1,3.4
		l-0.5,19.9l2.3,9.1v4.6l1.1,2.3c-2.3,8.4-3.4,13.3-3.4,14.8c0,3,0.8,5,2.3,5.7c1.5-3.8,2.3-6.8,2.3-9.1l8-6.8l-1.1-1.1l1.1-5.7
		c0-4.6,1.1-8.4,3.4-11.4l1.8-2.3l-1.1-2.3c0-0.7-0.1-13,1.4-15.3v-2.3c0-0.8-0.1-3,1.4-6.8c0-3.8,1.6-6.5,8.5-8l6.9,2.3l10.3-3.4
		c3,0,5-3.8,5.7-11.4c2.3-1.5,3.4-3.4,3.4-5.7v-1.1c-6.9-0.8-10.3-2.3-10.3-4.6l1.1-3.4c3.8-3.8,5.7-6.5,5.7-8l6.9-5.7v-1.1
		c0-1.5,0.8-2.7,2.3-3.4c3-2.3,4.6-6.5,4.6-12.5v-1.3H544.7z M480.6,147.1c0,8.4-2.3,13.7-6.9,16c-0.8,0-1.1-1.1-1.1-3.4v-3.4
		c0-2.3-1.5-7.2-4.6-14.8v-1.1c5.3-1.5,8.8-2.7,10.3-3.4c1.5,0,2.3,2.3,2.3,6.9L480.6,147.1L480.6,147.1z M508.1,142.5h-2.3
		l-1.1-1.1c0-4.6,2.3-8.7,6.9-12.5h1.1h2.3L508.1,142.5z M529.8,93.5l-5.7,12.5l1.1,4.6v1.1c-3.8,4.6-7.3,6.9-10.3,6.9
		c-4.6-3.8-8-6.1-10.3-6.9l1.1-8l4.6-12.6c5.3-5.3,11.8-8,19.4-8c2.3,0,3.4,0.4,3.4,1.1L529.8,93.5z"/>
	<path class="st0" d="M342.2,147.3l9.1-2.3l1.1,1.1l-2.3,8c-0.8,5.3-5.3,14.5-13.7,27.4l-9.1,11.4c0,7.6,1.5,11.4,4.6,11.4
		c2.3,4.6,4.6,6.8,6.9,6.8c1.5,0,3-1.1,4.6-3.4c2.3-5.3,5.7-9.1,10.3-11.4l12.6-14.8c0,0.8,0.8,3.8,2.3,9.1v2.3l-3.4,6.8v8
		c0,11.4,4.6,18.3,13.7,20.5c0.8,4.6,1.5,6.8,2.3,6.8l6.9-6.8c0.8-0.8,3-6.5,6.9-17.1V210l1.1-12.5l-1.1-6.9l1.1-5.7v-3.4v-6.8v-3.4
		c0-1.5,0.8-2.7,2.3-3.4c2.3,2.3,5.3,4.2,9.1,5.7c5.3,3,8.8,4.6,10.3,4.6h1.1h3.4l9.1,3.4l1.1-1.1c0-1.5-0.8-3.4-2.3-5.7
		c0-0.8,1.1-3,3.4-6.8v-2.3l-1.1-5.7l1.1-5.7c0-1.5-2.3-2.3-6.9-2.3c-6.9-4.6-10.7-6.8-11.4-6.8h-5.7c-4.6,0-7.3-1.1-8-3.4
		c1.5-3,2.7-8,3.4-14.8c0-6.1,4.2-9.9,12.6-11.4l4.6-5.7c6.1-2.3,9.5-5.3,10.3-9.1l-1.1-4.6c0-0.7-5-1.5-14.9-2.3h-6.9
		c-4.6,0-7.6,0.8-9.1,2.3c-3.8,4.6-7.3,6.9-10.3,6.9V102h-1.1c-2.3,0.8-3.4,1.5-3.4,2.3c-1.5,3.8-7.3,5.7-17.2,5.7
		c-3.1,0-6.1,1.5-9.1,4.6c-3.8,0-6.5,0.4-8,1.1c-6.1,3.8-11.4,5.7-16,5.7c-10.7-3-17.2-5.3-19.4-6.8c-3.1-2.3-5.7-3.4-8-3.4
		l-1.1,1.1v5.7c0,0.8,0.4,1.1,1.1,1.1c0,5.3,1.5,9.9,4.6,13.7c5.3,3.8,9.1,6.5,11.4,8C323.9,142.8,330,145.1,342.2,147.3z
		 M370.8,140.5l1.1-4.6c0-1.5,3.4-2.7,10.3-3.4c2.3,0,3.4,0.4,3.4,1.1l-4.6,13.7c-1.5,6.1-4.2,9.1-8,9.1l-2.3-2.3
		c0.8-1.5,1.1-3.4,1.1-5.7v-1.1L370.8,140.5z M373.1,165.6c0.8,0,1.5,0.4,2.3,1.1l-2.3,9.1H372l-3.4-1.1
		C370,168.6,371.6,165.6,373.1,165.6z"/>
</g>
<path class="st0" d="M681.6,149.6c0-2.7-2.2-6.3-6.6-10.7c0-2.7-3.6-4.4-10.7-4.9l-3.3,0.8h-0.8c-4.9,0-7.1-3.6-6.6-10.7
	c0-2.7,1.1-4.4,3.3-4.9c4.4-3.8,9-6.8,14-9c2.7,0,4.1-1.6,4.1-4.9c0-1.1-0.8-2.2-2.5-3.3h-1.6l-3.3,1.6c-1.6-1.1-3.6-1.6-5.8-1.6
	c-5.5,0-8.2-1.6-8.2-4.9l1.6-2.5c0-1.6-1.4-3.6-4.1-5.7c0-2.2-2.5-3.6-7.4-4.1h-2.5c-6,1.1-9.1,1.9-9.1,2.5v2.5l4.1,4.1
	c2.7,5.5,4.1,9.3,4.1,11.5c0,1.1-2.2,3.3-6.6,6.6c-1.6,1.6-5.8,2.7-12.3,3.3c-1.6,0-3.3-1.6-4.9-4.9c-2.2,0-3.3,1.1-3.3,3.3
	l-0.8,4.9v1.6c0,1.1,2.2,3.8,6.6,8.2l3.3-1.6h8.2c1.1,1.1,1.4,3.6,0.8,7.4c0,1.1-0.6,2.2-1.6,3.3c-4.4,2.2-6.6,5.5-6.6,9.9v5.7
	l-1.6,4.9c0,4.4-1.4,9.9-4.1,16.4l0.8,3.3c-2.2,6-3.3,9.3-3.3,9.9v2.5c0,2.2,0.3,3.8,0.8,4.9c1.6,5.5,4.1,8.2,7.4,8.2
	c3.3-2.7,7.4-4.1,12.3-4.1l5.8,0.8h9.9c3.3-1.1,5.2-1.6,5.8-1.6h2.5h2.5c2.7,3.3,4.4,4.9,4.9,4.9c1.6,3.3,4.1,4.9,7.4,4.9l1.6-0.8
	c3.8-3.3,5.8-5.7,5.8-7.4V190c-1.1-1.1-1.6-2.2-1.6-3.3v-1.6l1.6-4.9l-2.5-4.9v-20.5C680.8,151.8,681.6,150.1,681.6,149.6z
	 M660.2,162.7v0.8c-3.8,2.7-8.2,4.1-13.2,4.1h-0.8c-3.3,0-4.9-1.1-4.9-3.3c0-2.7,4.4-4.4,13.2-4.9
	C658.3,159.4,660.2,160.5,660.2,162.7z M640.5,148.8l4.1-1.6c1.1-1.6,4.4-2.5,9.9-2.5c2.2,0,3.3,0.3,3.3,0.8v1.6
	c0,1.6-4.9,3.6-14.8,5.7c-1.1,0-1.9-1.1-2.5-3.3V148.8z M661,181.6c-2.8,4.4-7.4,6.6-14,6.6h-1.6c-4.9,0-7.4-1.4-7.4-4.1v-0.8
	c4.4-3.8,7.4-5.7,9-5.7c2.7-2.2,5.2-3.3,7.4-3.3h1.6c2.7,0,4.4,1.6,4.9,4.9L661,181.6L661,181.6z"/>
<path class="st0" d="M673.4,66.7c3.3,0,5.5-5.7,6.6-17.2c0-2.7-0.8-4.9-2.5-6.6H675c-3.3,2.7-4.9,4.9-4.9,6.6c-1.6,1.6-8,4.7-18.9,9
	c-15.4,6.6-24.4,9.8-27.1,9.8c-3.3,2.7-6.6,4.4-9.9,4.9c-2.2,1.6-3.3,3.8-3.3,6.6l0.8,0.8C634.1,75.7,654.7,71.1,673.4,66.7z"/>
<path class="st0" d="M527.7,217.7h-1.6c-2.2,0-3.6,0.5-4.1,1.6v3.3c2.2,3.8,4.1,6.6,5.8,8.2h7.4c0.5-1.1,1.6-1.6,3.3-1.6
	c3.3-2.2,6.3-4.9,9-8.2c6.6-4.9,9.9-7.9,9.9-9l10.7-14c1.1-2.7,5.5-5.2,13.2-7.4c4.9,0,7.4-1.1,7.4-3.3c1.6-1.6,2.5-7.7,2.5-18.1
	l3.3-9c2.2-16.4,3.8-26.8,4.9-31.2v-0.8v-1.6l2.5-3.3c0-1.1-0.8-2.2-2.5-3.3c0-1.1,0.8-2.7,2.5-4.9c0-3.3,0.3-4.9,0.8-4.9
	c0.5-9.9,1.1-14.8,1.6-14.8l3.3-11.5l-0.8-3.3l0.8-0.8l1.6-2.5c-2.2-4.4-4.4-6.6-6.6-6.6h-3.3c-3.3,0.6-4.9,1.9-4.9,4.1
	c0,1.6,1.4,4.1,4.1,7.4l-0.8,12.3l-6.6,25.4c-1.6,7.7-3,11.5-4.1,11.5c-0.6,6-1.6,10.1-3.3,12.3l-4.1,14.8
	c-7.1,12.6-11.2,20-12.3,22.2c-2.8,6-6.9,10.7-12.3,14c-3.3,6.6-7.7,12.9-13.2,18.9c-2.2,3.3-5.5,4.9-9.9,4.9L527.7,217.7z"/>
<path class="st0" d="M888.5,127.1h2.4c0.8,0,1.2,0.8,1.2,2.4l-1.2,15.4l0.4,42.9c0,3.6-0.9,6.7-2.7,9.4c-1.7,2.5-2.1,5.8-0.3,8.3
	c0.4,0.5,0.8,1.1,1.3,1.5c1.5,1.5,3.7,2.3,5.9,2.1c3.8-0.4,7-1.7,9.4-3.8c1.2-1.1,2-2.6,2.2-4.2c1.4-8.1,5.9-19.3,6.7-20
	c2.4,0,3.1-41.6,0.9-64.6c-1.1-12.3-4.8-18.6-4.8-20.2c0-2.4,1.2-6.3,3.6-11.9c2.4-0.8,5.5-7.9,9.5-21.4c6.3-6.3,9.5-11.1,9.5-14.3
	c5.5-6.3,8.3-10.3,8.3-11.9c0-4.8-6.4-9.5-19.1-14.3c-4.8,0-9.5,2.8-14.3,8.3c0,1.6-6.4,3.6-19.1,5.9h-1.2c-8.7-4-14.3-5.9-16.7-5.9
	l-1.2,2.4c0,1.6,0.4,2.8,1.2,3.6c5.5,6.4,8.7,9.5,9.5,9.5c7.9,6.4,13.1,9.5,15.5,9.5s4.4-0.4,6-1.2l1.2,1.2c-0.8,4-1.6,5.9-2.4,5.9
	c-7.9,13.5-12.3,20.2-13.1,20.2c-5.6,0.8-8.3,2-8.3,3.6v2.4c1.6,1.6,2.4,3.2,2.4,4.8v1.2c0,1.6-1.2,4.8-3.6,9.5
	c0,2.4-4,4.8-11.9,7.1c-2.4,3.2-4,6.7-4.8,10.7c-7.1,9.5-10.7,17-10.7,22.6v1.2c4,8.7,7.9,13.1,11.9,13.1c0.8,0,2-1.6,3.6-4.7
	c5.5,0,11.9-5.1,19.1-15.4C885.7,130.6,886.9,127.1,888.5,127.1z"/>
<path class="st0" d="M862.3,92.6h-1.2l-7.1,7.1c-9.5,4.8-15.9,8.3-19.1,10.7c-1.6,0-2.4-1.2-2.4-3.6v-5.9c0-1.6,1.2-3.2,3.6-4.8
	c0-4,3.6-6.7,10.7-8.3c4.8,0,9.5-8.7,14.3-26.1c0-0.8-0.8-1.6-2.4-2.4C851.6,57,848,53.4,848,48.6L842,32l-7.1-10.7
	c-7.1-4.8-12.3-8.3-15.5-10.7H817c-3.2,3.2-4.8,5.6-4.8,7.1l1.2,13.1v4.8c0,5.6-1.2,9.9-3.6,13.1l1.2,2.4l-2.4,9.5
	c-5.6,4-9.1,6.7-10.7,8.3c-6.4,4.8-12.3,7.1-17.9,7.1c-1.6,0-9.1,2-22.6,5.9c-11.9,0.8-17.9,2-17.9,3.6c-7.1,1.6-15.5,3.2-25,4.8
	c-0.8,0-2-0.4-3.6-1.2l-13.1,3.6l-8.3,3.6v2.4c3.2,0.8,5.2,2.4,6,4.8c7.9,7.9,13.9,12.3,17.9,13.1c7.9,4,12.3,7.1,13.1,9.5
	c0,1.6,5.2,2.8,15.5,3.6h15.5h4.8c6.3-2.4,11.5-7.1,15.5-14.3c11.1-7.9,17.9-11.9,20.2-11.9c1.6,0,2.8,0,3.6,0v1.2l-7.1,11.9
	c-3.2,11.1-13.5,23-31,35.6c-8.7,4.8-13.1,12.3-13.1,22.6v7.1v5.9l2.4,11.9h7.1h2.4c2.4,0,4.4-1.2,6-3.6c7.9-3.2,15.1-5.5,21.4-7.1
	c2.4,0,3.6,2,3.6,5.9c3.2,3.2,9.5,7.9,19.1,14.3h6c4-2.4,6-5.5,6-9.5c5.5-6.3,8.3-9.9,8.3-10.7v-4.8v-9.5l-1.2-10.7l1.2-14.3v-4.8
	l2.4-9.5l6-11.9c14.3-15.8,21.4-25.7,21.4-29.7v-1.2H862.3z"/>
<path class="st0" d="M923,98.8v1.2l8.3,5.9c13.5,7.9,20.3,12.3,20.3,13.1l-2.4,3.6c0,4,6.7,7.1,20.2,9.5c0.8,0,4-1.2,9.5-3.6h4.8
	l3.6-1.2c0-4,1.2-7.1,3.6-9.5c-0.8-0.8-2-2-3.6-3.6c-11.1-9.5-19.5-14.3-25-14.3c-9.5,0-14.7-2.4-15.5-7.1l-2.4,2.4
	c0,0.8-0.8,2-2.4,3.6l-16.7-1.2C923.8,97.7,923,98.1,923,98.8z"/>
<path class="st0" d="M463,321.9v-33.8h30.3v29.2c0.7,3.5-2.1,5.2-8.5,5c-0.1-2.1-0.6-3.7-1.4-4.7c3.9,0.2,5.5-0.4,4.9-1.7v-23.7
	h-20.5v4.7c0.9-0.6,1.7-1.2,2.4-1.8c0.1,0.3,0.4,0.8,0.8,1.4c1.3,2,2,3,2.1,2.9c0.3-1.4,0.7-3.2,1.1-5.5l4.6,1.2l-0.9,2.7l1.8-1.2
	c0.1,0.3,0.4,0.8,0.9,1.5c0.7,1.1,1.3,1.9,1.7,2.4c0.6-2,1.1-4.3,1.4-6.7l4.4,1.4c-0.4,2-1.5,5.5-3.2,10.3c1.7,3.6,2.8,6,3.2,7.3
	c-1.4,0.5-2.8,1.2-4.1,2c-0.2-0.5-0.5-1.2-0.8-2.1s-0.5-1.7-0.6-2.3c-0.1,0-0.5,0.5-1.1,1.5c-1,1.9-2.1,3.7-3.3,5.3
	c-1.1-0.8-2.4-1.5-3.8-2c1-1.1,2.1-2.5,3.3-4.3c-0.9,0.3-1.8,0.8-2.6,1.4c-0.1-0.1-0.3-0.5-0.6-1.2c-0.4-1.1-0.7-1.9-0.8-2.3
	c-1.2,2.4-2.7,4.7-4.4,6.8c-0.3-0.6-0.9-1.4-1.7-2.3v8.4H463V321.9z M467.5,298v13.7c1.3-1.6,2.6-4,4-7.1
	C470,301.9,468.6,299.8,467.5,298z M477.1,300l-1.4,4.1c1.5,3.1,2.4,4.9,2.7,5.3c0.6-0.8,1.2-2.1,1.8-3.8
	C479,303.1,477.9,301.2,477.1,300z"/>
<path class="st0" d="M514,314.9c5-0.3,9.8-1,14.6-2c-0.3,1.7-0.5,3.2-0.5,4.6c-5.1,0.6-9.3,1.4-12.8,2.4c-0.1,0-0.2-0.1-0.3-0.2
	c-0.1-0.1-0.2-0.4-0.3-0.8c-0.4-1.7-0.7-3-0.9-4C513.7,315,513.7,314.9,514,314.9z M514.3,307.6l0.2-0.3c0.7-0.1,1.4-0.3,2.1-0.6
	c0.5-0.3,1-0.9,1.5-1.7c0.7-1,1.4-2.1,2.1-3.3c-2.4,0.4-3.9,0.7-4.4,0.9c-0.1,0-0.2,0.1-0.2,0.2c-0.3,0-0.5-0.1-0.5-0.3
	c-0.1-0.2-0.3-0.7-0.5-1.4c-0.2-0.9-0.4-1.9-0.6-2.9c0-0.2,0.2-0.4,0.6-0.5c0.2,0,0.4-0.1,0.5-0.2c0.7-0.3,1.2-0.9,1.5-1.7
	c0.6-1,1.1-2.2,1.4-3.5c0.1-0.4,0.4-1.2,0.8-2.4c0.6-2.2,1-3.3,1.1-3.2c1.9,0.5,3.7,1,5.3,1.5c0,0.1,0,0.2,0,0.3
	c-0.7,1.2-1.9,3.3-3.7,6.4c-0.9,1.7-1.4,2.7-1.5,2.9h2.4c0.6-1.1,1.3-2.4,2-4c0-0.2,0-0.4,0.2-0.5l3.2,1.4c0.4,0.2,0.8,0.3,1.1,0.3
	c0.2,0.2,0.3,0.4,0.3,0.5c-0.7,1-2,2.9-3.8,5.6c-2.3,3.6-3.6,5.6-3.8,6.1c0.3,0,0.9,0,1.7,0c1.1-0.1,2.3-0.3,3.5-0.5
	c-0.2,1.3-0.3,2.6-0.2,4c-3.6,0.2-7.2,0.7-11,1.4c-0.1,0.1-0.2,0.1-0.3-0.2c-0.1-0.3-0.3-0.9-0.5-1.7
	C514.6,309.4,514.4,308.5,514.3,307.6z M532.5,286.8l0.2-0.2c2.9,0.5,4.9,0.9,5.8,1.1c0,0.1-0.1,0.4-0.3,0.9
	c-0.3,0.8-0.6,1.5-0.8,2.1h10.3c-0.9,3.6-2.7,7-5.5,10.5c1.2,0.9,3.3,1.9,6.2,2.9c0.6,0.2,1.1,0.4,1.5,0.5c-0.6,0.8-1.3,2-2.1,3.5
	l-0.6,1.1l-1.5-0.6v14h-4.9v-2.3h-5.6v2.3h-4.7v-13.8c-0.8,0.4-1.3,0.6-1.4,0.6c-0.8-1.3-1.9-2.6-3.2-3.8c3.5-0.9,6.6-2.4,9.1-4.4
	c-0.3-0.2-0.8-1-1.4-2.3c-1,1.7-1.8,2.8-2.3,3.3c-1.6-0.6-3.1-1.1-4.4-1.4C529.8,297.2,531.6,292.5,532.5,286.8z M532.8,307.8h11.3
	c-1.8-0.7-3.7-1.8-5.6-3.3C536.6,305.7,534.7,306.8,532.8,307.8z M540.9,311.9h-5.6v4.7h5.6V311.9z M540.7,294.8h-4.6
	c0.6,1.6,1.4,2.8,2.3,3.7C539.4,297.5,540.1,296.3,540.7,294.8z"/>
<path class="st0" d="M568.4,302.4h11.1c0.8-1.4,1.6-3.4,2.4-6.1c0.2,0.1,0.5,0.2,0.8,0.3c3.7,0.9,5.4,1.4,5.3,1.5
	c-0.1,0.2-0.3,0.5-0.6,0.8c-0.1,0.2-0.2,0.4-0.3,0.5c-0.8,1.3-1.4,2.3-1.7,3h17.3v4.3h-7.3c-1.1,3.1-2.3,5.4-3.5,6.8
	c3.3,1.4,6.6,3,9.9,4.7c-0.2,0.2-0.9,1-2.1,2.4c-1,1.1-1.6,1.9-1.8,2.3c-2.4-2.2-5.7-4.2-9.7-5.8c-4.2,2.8-9.4,4.7-15.7,5.6
	c-0.8-1.6-1.8-3.2-2.9-4.7c5.6-0.4,9.8-1.5,12.8-3.2c-2-0.8-4.9-1.8-8.5-3l0.5-0.6c1.4-1.9,2.4-3.4,3-4.6h-9V302.4z M569.8,291.3
	H583c-0.2-1.1-0.5-2.5-0.9-4.1c2,0,4,0,5.8-0.2c0.2,0,0.4,0,0.5-0.2c0,1,0.1,2.5,0.3,4.4h12.5v8.4h-5.3v-4.1h-21v4h-5L569.8,291.3
	L569.8,291.3z M589.4,306.7h-6.2l-1.8,2.9c1.9,0.7,3.8,1.4,5.5,2.1C588.1,310.4,588.9,308.7,589.4,306.7z"/>
<path class="st0" d="M650,303.5v1.5h-8v3.8h9.9v4.1H642v4.4h12.9v4.1h-31.3v-4.1h12.9v-4.4h-9.7v-4.1h9.7V305h-8.1v-1.7
	c-1.3,1-2.6,1.8-4,2.4c-1.1-1.3-2.2-2.5-3.3-3.7c8.3-4.2,13.4-9.2,15.4-15.2c4.4,1.1,6.5,1.7,6.5,1.8c0,0.2-0.2,0.5-0.6,0.8
	c-0.1,0.2-0.2,0.4-0.3,0.5c3.1,5.2,8.2,8.7,15.2,10.6c-1.1,1.4-2.1,3.1-3,5C653.4,305.3,651.9,304.6,650,303.5z M632.4,300.8h13.7
	c-2.3-1.5-4.6-3.9-6.8-7C637.3,296.3,635,298.6,632.4,300.8z"/>
<path class="st0" d="M696.2,290.3h12.5v4h-7.9c1.2,0.7,1.9,1.1,2,1.2c0,0.1-0.3,0.4-0.9,0.9c-0.4,0.4-0.8,0.8-1.2,1.2h10v4H676v-4
	h9.3c-0.2-0.1-0.4-0.4-0.6-0.8c-0.5-0.8-0.7-1.3-0.6-1.5c1.4-0.4,2.5-0.8,3.2-1.1h-9.5v-4h13c-0.1-0.2-0.3-0.6-0.5-1.2
	c-0.2-0.9-0.3-1.5-0.2-1.8h2c2.2-0.1,3.4-0.2,3.7-0.2C696,287.8,696.1,288.8,696.2,290.3z M687.6,312.9h-6.5V303h24.3v9.9h-5.9v4.1
	c0,0.6,0.3,0.9,0.9,0.8h3.7c1,0.4,1.6-0.7,1.7-3.2c1.7,1,3.3,1.6,4.7,1.7c-0.1,4.2-1.9,6-5.3,5.6h-7c-2.3,0-3.5-1.1-3.5-3.2v-5.8
	h-2.1c-1.2,4.9-5.5,8.1-12.9,9.6c-0.5-0.8-1.3-1.7-2.3-2.7c-0.5-0.6-0.8-1-0.8-1.1c-0.1-0.1,0.2-0.2,0.8-0.2
	C682.9,317.9,686.4,316,687.6,312.9z M686.1,306.8v2.3h14.1v-2.3H686.1z M697.2,294.2h-7.9c0.1,0.3,0.3,0.8,0.5,1.5
	c0.4,0.9,0.7,1.5,0.9,1.8h5.3C696.3,296.5,696.8,295.3,697.2,294.2z"/>
<path class="st0" d="M730.4,296.7v-6.8h13.8c-0.1-0.2-0.3-0.6-0.6-1.2c-0.2-0.5-0.3-0.9-0.3-1.2c0.1-0.1,1.2-0.2,3.2-0.3
	c1.9-0.1,2.9-0.1,3,0c0.1,0.5,0.2,1.4,0.3,2.7h13.4v6.8h-4.9v1.5h-4.7v1.2h6.2v3h-6.2v1.4h9.7v3.3h-7c1.6,1.4,4.4,2.4,8.2,2.9
	c-1.4,1.7-2.4,3.2-3,4.4c-1.8-0.8-3.2-1.5-4.1-2.1v3.7h-4.9v-4.1h-11.9v5H736v-4.4c-1.4,1-2.8,1.9-4.3,2.6c-0.8-1.2-1.6-2.2-2.3-3
	c-0.4-0.5-0.6-0.9-0.6-1.1c3.2-1,6-2.3,8.2-3.8h-7v-3.3h9.7v-1.4h-6.2v-3h6.2v-1.2H735v-1.5h-4.6V296.7z M762,319.2l-0.8,0.8
	c-0.6,0.7-1.4,1.7-2.3,3c-3.9-1.8-8-3.3-12.5-4.6c-1.9,2.1-6.2,3.6-12.9,4.4c-0.6-1.2-1.5-2.5-2.6-4c4.8-0.2,7.8-0.6,9-1.2
	c1.7-0.7,2.9-2,3.7-3.8v-0.2c0.1-0.5,0.3-0.8,0.6-0.8c2.9,0.1,4.7,0.2,5.2,0.3c0,0.3-0.3,0.9-0.8,1.8c1.1,0.4,3.3,1.2,6.7,2.3
	C758.7,318.2,760.9,318.8,762,319.2z M735.2,295.1h4.7v-1.7h-4.7V295.1z M741.8,308.7H752l-1.5-1.5h-6.7
	C743.1,307.8,742.5,308.3,741.8,308.7z M744.7,293.5v1.7h4.4v-1.7H744.7z M749.1,298.2h-4.4v1.2h4.4V298.2z M749.1,302.4h-4.4v1.4
	h4.4V302.4z M758.2,293.5h-4.6v1.7h4.6V293.5z"/>
<rect x="454.7" y="276.4" class="st0" width="103" height="1"/>
<rect x="662.7" y="276.4" class="st0" width="107.7" height="1"/>
<rect x="454.7" y="332.7" class="st0" width="103" height="1"/>
<rect x="662.7" y="332.7" class="st0" width="107.7" height="1"/>
<polygon class="st0" points="570.5,273 571.8,275.6 574.7,276 572.6,278 573.1,280.9 570.5,279.6 567.9,280.9 568.4,278 566.3,276 
	569.2,275.6 "/>
<polygon class="st0" points="590.4,273 591.7,275.6 594.6,276 592.5,278 593,280.9 590.4,279.6 587.8,280.9 588.3,278 586.2,276 
	589.1,275.6 "/>
<polygon class="st0" points="610.3,273 611.6,275.6 614.4,276 612.4,278 612.8,280.9 610.3,279.6 607.7,280.9 608.2,278 606.1,276 
	609,275.6 "/>
<polygon class="st0" points="630.1,273 631.4,275.6 634.3,276 632.2,278 632.7,280.9 630.1,279.6 627.6,280.9 628.1,278 626,276 
	628.9,275.6 "/>
<polygon class="st0" points="650,273 651.3,275.6 654.2,276 652.1,278 652.6,280.9 650,279.6 647.4,280.9 647.9,278 645.8,276 
	648.7,275.6 "/>
<polygon class="st0" points="570.5,329.2 571.8,331.8 574.7,332.2 572.6,334.3 573.1,337.2 570.5,335.8 567.9,337.2 568.4,334.3 
	566.3,332.2 569.2,331.8 "/>
<polygon class="st0" points="590.4,329.2 591.7,331.8 594.6,332.2 592.5,334.3 593,337.2 590.4,335.8 587.8,337.2 588.3,334.3 
	586.2,332.2 589.1,331.8 "/>
<polygon class="st0" points="610.3,329.2 611.6,331.8 614.4,332.2 612.4,334.3 612.8,337.2 610.3,335.8 607.7,337.2 608.2,334.3 
	606.1,332.2 609,331.8 "/>
<polygon class="st0" points="630.1,329.2 631.4,331.8 634.3,332.2 632.2,334.3 632.7,337.2 630.1,335.8 627.6,337.2 628.1,334.3 
	626,332.2 628.9,331.8 "/>
<polygon class="st0" points="650,329.2 651.3,331.8 654.2,332.2 652.1,334.3 652.6,337.2 650,335.8 647.4,337.2 647.9,334.3 
	645.8,332.2 648.7,331.8 "/>
<g>
	<path class="st0" d="M545.7,263.8v-3.2h10v-21.2h2c1.5,0,2.3,0.1,2.3,0.3s0,0.3-0.1,0.6c-0.2,0.5-0.2,1.1-0.2,1.8v4.4h9.2v3.4h-9.2
		v10.7h11.8v3.2H545.7z"/>
	<path class="st0" d="M574.3,248.4l2.2-2.8c0.8,0.5,1.9,1.3,3.3,2.4c0.5,0.3,0.9,0.6,1.2,0.8l-2.4,2.8
		C577,250.3,575.5,249.2,574.3,248.4z M589.2,241.1h10.7v2.9h-12.6c-0.4,0.6-0.8,1.1-1.1,1.6h12.4c-0.1,2-0.2,4.1-0.2,6.1h2.6v2.9
		h-2.7v3.5h2v3.1h-1.9c-0.2,1-0.3,1.7-0.5,2.2c-0.8,1.3-2.8,1.9-6,1.8c-0.1-1.3-0.3-2.3-0.8-3.2c1.5,0,2.3,0,2.5,0
		c0.6,0,0.9-0.3,0.8-0.8h-11.7c0.6-3.6,0.9-5.7,1-6.5h-2.3c-1.1,3.4-2,6.7-2.7,10l-3.9-2.5c1.1-2.3,2.3-5.6,3.5-9.8l2.3,1.4v-2.2
		h3.4c0.2-1.2,0.3-2.5,0.5-3.7c-0.2,0.2-0.4,0.5-0.8,0.9c-0.2,0.2-0.4,0.4-0.5,0.5c-0.7-0.6-1.6-1.3-2.8-2c2.3-2.1,4.1-5,5.3-8.5
		c0-0.2,0-0.3,0.1-0.3c2.4,0.4,3.9,0.7,4.5,0.9c0,0.1-0.1,0.3-0.3,0.6C589.7,240.3,589.4,240.7,589.2,241.1z M576.1,241.9l2.6-2.9
		c1.5,1.1,3,2.3,4.4,3.5l-2.6,3.1c-0.1,0-0.2,0-0.3-0.1C578.5,243.7,577.1,242.6,576.1,241.9z M586.5,258.3h2.9
		c-0.2-0.5-0.5-1.5-0.9-2.9c0.2-0.1,0.7-0.2,1.5-0.5c0.5-0.1,0.8-0.2,0.8-0.2H587c-0.2,0.6-0.3,1.2-0.3,1.8
		C586.6,257.3,586.5,257.9,586.5,258.3z M588.6,249.2l2-0.8h-2.9l-0.5,3.4h2.3C589.3,250.9,589,250.1,588.6,249.2z M590.1,258.3h4.5
		v-3.6h-2.4c0.4,1.2,0.6,2.2,0.7,2.8c-0.8,0.3-1.7,0.6-2.5,0.8C590.1,258.3,590,258.3,590.1,258.3z M591.2,251.9h3.5v-3.4h-2.4
		c0.5,1.2,0.7,2.1,0.8,2.7c-0.2,0.2-0.6,0.3-1,0.3C591.7,251.7,591.4,251.8,591.2,251.9z"/>
	<path class="st0" d="M637.7,243.1h4.7c0.6-1.4,1.2-3,1.8-4.6c0.8,0.2,2.1,0.5,4.1,1.1c0.2,0.2,0.3,0.4,0.2,0.5
		c-1.2,1.3-1.9,2.3-2.2,3.1h7.6v2.9h-11c-0.2,0.8-0.4,1.4-0.5,1.9h7.5v17h-3.7v-1.7H636v1.9h-3.6v-17.4h6.2l0.1-1.8h-10.9v-2.9h8.7
		c-0.6-0.8-1.4-1.9-2.3-3.1c1.8-0.9,2.9-1.4,3.4-1.6c1.4,2,2.1,3.2,2.3,3.5C639.2,242.4,638.5,242.8,637.7,243.1z M636,250.8v1.4
		h10.2v-1.4H636z M636,256.3h10.2v-1.4H636V256.3z M636.1,259.1v1.5h10.1v-1.5H636.1z"/>
	<path class="st0" d="M659.5,250.8v-6.6c0-1.1,0-1.9-0.1-2.5c0-0.7,0-1.3,0-1.9h21.8v7.8h-6.8v2.9h7v14.3h-4V263h-9.8v1.7H664v-14.1
		h6.6v-2.9h-7.5v2.9c-0.1,5.5-1.3,10.1-3.6,13.7c-1.1-1.1-2.1-1.8-3.1-2.3C658.4,259.2,659.4,255.4,659.5,250.8z M663.1,244.8h14.1
		v-2h-14.1V244.8z M667.7,253.4v2h2.9v-2H667.7z M667.7,258.1v2.2h2.9v-2.2H667.7z M677.4,253.4h-3.2v2h3.2V253.4z M674.2,258.1v2.2
		h3.3v-2.2H674.2z"/>
</g>
<circle class="st0" cx="615.6" cy="254.1" r="3.5"/>
</svg>
