<?xml version="1.0" encoding="utf-8"?>
<!-- Generator: Adobe Illustrator 21.0.0, SVG Export Plug-In . SVG Version: 6.00 Build 0)  -->
<svg version="1.1" id="图层_1" xmlns="http://www.w3.org/2000/svg" xmlns:xlink="http://www.w3.org/1999/xlink" x="0px" y="0px"
	 viewBox="0 0 20 20" style="enable-background:new 0 0 20 20;" xml:space="preserve">
<style type="text/css">
	.st0{fill:#00E2FF;}
</style>
<g>
	<g>
		<path class="st0" d="M18,8.6c0,0,0-0.1,0-0.1c0,0,0-0.1-0.1-0.1c0,0-0.1-0.1-0.1-0.1c0,0,0,0,0,0c0,0-1-0.8-1-2c0-1.2,1-2,1-2
			c0,0,0,0,0,0c0,0,0.1-0.1,0.1-0.1c0,0,0-0.1,0.1-0.1C18,4,18,4,18,4c0,0,0-0.1,0-0.1c0,0,0,0,0,0c0,0,0,0,0-0.1c0,0,0-0.1,0-0.1
			c0,0,0-0.1-0.1-0.1c0,0,0,0,0-0.1c0,0,0,0,0,0c0,0-0.1-0.1-0.1-0.1c0,0-0.1,0-0.1-0.1c0,0-0.1,0-0.1,0c0,0-0.1,0-0.1,0
			c0,0,0,0,0,0H5c-1.7,0-3.1,1.4-3.1,3.1C1.9,8,3.3,9.4,5,9.4h1.4c0.1,0.3,0.3,0.5,0.6,0.5h0.3c0.3,0,0.5-0.2,0.6-0.5h9.5
			c0.1,0,0.2,0,0.3-0.1c0,0,0,0,0,0c0.1,0,0.1-0.1,0.2-0.1c0,0,0,0,0,0c0,0,0,0,0-0.1C18,9,18,9,18,9c0,0,0-0.1,0-0.1
			c0,0,0-0.1,0-0.1c0,0,0,0,0,0C18,8.7,18,8.6,18,8.6z M16.1,8.1H8V5.2H6.4v2.9H5c-1,0-1.9-0.8-1.9-1.9S4,4.4,5,4.4h11.1
			c-0.3,0.5-0.5,1.1-0.5,1.9C15.6,7,15.8,7.7,16.1,8.1z M15,10.6H2.6c0,0,0,0,0,0c0,0-0.1,0-0.1,0c0,0-0.1,0-0.1,0
			c0,0-0.1,0-0.1,0.1c0,0-0.1,0.1-0.1,0.1c0,0,0,0,0,0c0,0,0,0,0,0.1C2,11,2,11,2,11c0,0,0,0.1,0,0.1c0,0,0,0,0,0.1c0,0,0,0,0,0
			c0,0,0,0.1,0,0.1c0,0,0,0.1,0,0.1c0,0,0,0.1,0.1,0.1c0,0,0.1,0.1,0.1,0.1c0,0,0,0,0,0c0,0,1,0.8,1,2c0,1.2-1,2-1,2c0,0,0,0,0,0
			c0,0-0.1,0.1-0.1,0.1c0,0,0,0.1-0.1,0.1C2,16,2,16,2,16c0,0,0,0.1,0,0.1c0,0,0,0,0,0c0,0,0,0,0,0.1c0,0,0,0.1,0,0.1
			c0,0,0,0.1,0.1,0.1c0,0,0,0,0,0.1c0,0,0,0,0,0c0,0,0.1,0.1,0.2,0.1c0,0,0,0,0.1,0c0.1,0,0.2,0.1,0.3,0.1H15c1.7,0,3.1-1.4,3.1-3.1
			C18.1,12,16.7,10.6,15,10.6z M15,15.6H3.9c0.3-0.5,0.5-1.1,0.5-1.9c0-0.8-0.2-1.4-0.5-1.9H15c1,0,1.9,0.8,1.9,1.9
			C16.8,14.7,16,15.6,15,15.6z"/>
	</g>
</g>
</svg>
