<?xml version="1.0" encoding="utf-8"?>
<!-- Generator: Adobe Illustrator 21.0.0, SVG Export Plug-In . SVG Version: 6.00 Build 0)  -->
<svg version="1.1" id="图层_1" xmlns="http://www.w3.org/2000/svg" xmlns:xlink="http://www.w3.org/1999/xlink" x="0px" y="0px"
	 viewBox="0 0 98 66" style="enable-background:new 0 0 98 66;" xml:space="preserve">
<style type="text/css">
	.st0{fill:#00E2FF;}
</style>
<g>
	<path class="st0" d="M71.3,50.7C65.9,58,57.5,62.2,48.4,62.2c-13.5,0-25.2-9.6-27.9-22.8c-0.1-0.7-0.8-1.1-1.5-1
		c-0.7,0.1-1.1,0.8-1,1.5C21,54.3,33.7,64.7,48.4,64.7c9.8,0,19.1-4.7,24.9-12.5c0.4-0.5,0.3-1.3-0.3-1.7
		C72.5,50,71.7,50.2,71.3,50.7z"/>
	<path class="st0" d="M48.4,2.7c-14.6,0-27.3,10.4-30.3,24.5l-3.8,3.1c1.1-11.5,7.9-21.6,18.3-27c0.3-0.2,0.4-0.5,0.3-0.8
		c-0.2-0.3-0.5-0.4-0.8-0.3C20.2,8.3,12.9,20.4,12.9,33.7c0,7.1,2.1,14,6.1,19.8c0.1,0.2,0.3,0.3,0.5,0.3c0.1,0,0.2,0,0.3-0.1
		c0.3-0.2,0.4-0.6,0.2-0.9c-3.2-4.7-5.1-10.1-5.7-15.8l7.6-9.1l7.1-1.9c1.5-3.8,4.1-7.1,7.5-9.5l-0.7-1c-3.3,2.3-5.9,5.4-7.5,9l0,0
		l-7.1,0.5C24.9,13.5,35.9,5.2,48.4,5.2c15.7,0,28.5,12.8,28.5,28.5c0,4.4-1,8.6-2.9,12.5c-0.3,0.6,0,1.4,0.6,1.7
		C74.8,48,75,48,75.1,48c0.5,0,0.9-0.3,1.1-0.7c2.1-4.3,3.1-8.8,3.1-13.6C79.4,16.6,65.5,2.7,48.4,2.7z"/>
	<path class="st0" d="M82.1,22.7c-0.1-0.3-0.5-0.5-0.8-0.4c-0.3,0.1-0.5,0.5-0.4,0.8c0.5,1.6,0.9,3.3,1.2,5c0.1,0.3,0.3,0.5,0.6,0.5
		c0,0,0.1,0,0.1,0c0.3-0.1,0.6-0.4,0.5-0.7C83.1,26.1,82.7,24.4,82.1,22.7z"/>
	<path class="st0" d="M80.9,19.4c-2.9-6.7-7.8-12.2-14-16c-0.3-0.2-0.7-0.1-0.9,0.2c-0.2,0.3-0.1,0.7,0.2,0.9
		c6,3.7,10.7,9,13.5,15.4c0.1,0.2,0.3,0.4,0.6,0.4c0.1,0,0.2,0,0.2-0.1C80.9,20.1,81,19.7,80.9,19.4z"/>
	<path class="st0" d="M65.6,14.7C60.9,10.4,54.8,8,48.4,8C38.3,8,29.2,13.9,25,23c0.5,0,0.7,0,1.4,0c4.1-8.4,12.5-13.8,22-13.8
		c6.1,0,11.9,2.2,16.4,6.3L65.6,14.7z"/>
</g>
<g>
	<g>
		<path class="st0" d="M63.6,43.4c1.2,1.4,0.7,3.6,0.2,4c-0.4,0.4-0.4,0.6-2.4,2.4c-2,1.8-6,0.6-7.8,0c-1.8-0.6-6.7-3.7-11.3-8.1
			c-4.6-4.4-7-9.9-8-12.8c-1-3-0.4-4.1,0-5.1c0.4-1,1-1.9,3-3c2-1.1,2.7-0.3,3.2,0c0.5,0.3,2.7,2.2,3.5,4c0.8,1.8,0.4,3-0.2,3.6
			c-0.6,0.6-1,1.1-1.5,1.4c-0.5,0.3-0.6,0.8-0.5,1.8c0.1,0.9,3.5,4.7,4.2,5.3c0.7,0.7,5.1,5.3,6.7,5.7c1.6,0.3,2.1-0.3,2.3-0.5
			c0.2-0.2,0.8-1,1.5-1.6c0.7-0.6,2.6-0.4,3-0.1C60,40.8,62.4,41.9,63.6,43.4L63.6,43.4z M63.6,43.4"/>
	</g>
</g>
</svg>
